<svg width="16" height="20" viewBox="0 0 16 20" fill="none" xmlns="http://www.w3.org/2000/svg">
<path d="M16 20H14V18.0952C14 16.5172 12.6569 15.2381 11 15.2381H5C3.34315 15.2381 2 16.5172 2 18.0952V20H0V18.0952C0 15.4653 2.23858 13.3333 5 13.3333H11C13.7614 13.3333 16 15.4653 16 18.0952V20ZM8 11.4286C4.68629 11.4286 2 8.87019 2 5.71429C2 2.55837 4.68629 0 8 0C11.3137 0 14 2.55837 14 5.71429C14 8.87019 11.3137 11.4286 8 11.4286ZM8 9.52381C10.2091 9.52381 12 7.81823 12 5.71429C12 3.61034 10.2091 1.90476 8 1.90476C5.79086 1.90476 4 3.61034 4 5.71429C4 7.81823 5.79086 9.52381 8 9.52381Z" fill="#383737"/>
</svg>
