<svg width="16" height="20" viewBox="0 0 16 20" fill="none" xmlns="http://www.w3.org/2000/svg">
<path d="M2.66667 6.66667V5.71429C2.66667 2.55837 5.05448 0 8 0C10.9455 0 13.3333 2.55837 13.3333 5.71429V6.66667H15.1111C15.602 6.66667 16 7.09307 16 7.61905V19.0476C16 19.5736 15.602 20 15.1111 20H0.888889C0.397973 20 0 19.5736 0 19.0476V7.61905C0 7.09307 0.397973 6.66667 0.888889 6.66667H2.66667ZM14.2222 8.57143H1.77778V18.0952H14.2222V8.57143ZM7.11111 14.0309C6.57973 13.7015 6.22222 13.086 6.22222 12.381C6.22222 11.329 7.01813 10.4762 8 10.4762C8.98187 10.4762 9.77778 11.329 9.77778 12.381C9.77778 13.086 9.42027 13.7015 8.88889 14.0309V16.1905H7.11111V14.0309ZM4.44444 6.66667H11.5556V5.71429C11.5556 3.61034 9.96364 1.90476 8 1.90476C6.03632 1.90476 4.44444 3.61034 4.44444 5.71429V6.66667Z" fill="#383737"/>
</svg>
