<svg width="20" height="20" viewBox="0 0 19 20" fill="none" xmlns="http://www.w3.org/2000/svg">
<path d="M8.1095 14.4832L15.3588 7.2339L13.5941 5.46927L8.1095 10.9539L5.34333 8.18775L3.57871 9.95237L8.1095 14.4832ZM2.76794 19.2047C2.07274 19.2047 1.4777 18.9572 0.982807 18.4621C0.487758 17.9673 0.240234 17.3722 0.240234 16.677V3.32311C0.240234 2.62807 0.487758 2.03303 0.982807 1.53798C1.4777 1.04293 2.07274 0.79541 2.76794 0.79541H16.1218C16.8169 0.79541 17.4119 1.04293 17.907 1.53798C18.402 2.03303 18.6495 2.62807 18.6495 3.32311V16.677C18.6495 17.3722 18.402 17.9673 17.907 18.4621C17.4119 18.9572 16.8169 19.2047 16.1218 19.2047H2.76794Z" fill="#7A00E6"/>
</svg>
