<svg width="25" height="25" viewBox="0 0 25 25" fill="none" xmlns="http://www.w3.org/2000/svg">
<mask id="mask0_889_3335" style="mask-type:alpha" maskUnits="userSpaceOnUse" x="0" y="0" width="25" height="25">
<rect x="0.5" y="0.54248" width="24" height="24" fill="#D9D9D9"/>
</mask>
<g mask="url(#mask0_889_3335)">
<path d="M12.5 16.5425L7.5 11.5425L8.9 10.0925L11.5 12.6925V4.54248H13.5V12.6925L16.1 10.0925L17.5 11.5425L12.5 16.5425ZM6.5 20.5425C5.95 20.5425 5.47917 20.3466 5.0875 19.955C4.69583 19.5633 4.5 19.0925 4.5 18.5425V15.5425H6.5V18.5425H18.5V15.5425H20.5V18.5425C20.5 19.0925 20.3042 19.5633 19.9125 19.955C19.5208 20.3466 19.05 20.5425 18.5 20.5425H6.5Z" fill="#7A00E6"/>
</g>
</svg>
