<svg width="18" height="18" viewBox="0 0 18 18" fill="none" xmlns="http://www.w3.org/2000/svg">
<path d="M8.42551 1.0332H5.24958C2.63766 1.0332 1 2.87903 1 5.49219V12.5414C1 15.1546 2.63001 17.0004 5.24958 17.0004H12.7447C15.3652 17.0004 16.9952 15.1546 16.9952 12.5414V9.12618" stroke="#130F26" stroke-opacity="0.6" stroke-width="1.5" stroke-linecap="round" stroke-linejoin="round"/>
<path fill-rule="evenodd" clip-rule="evenodd" d="M6.16219 7.92757L12.5098 1.59139C13.3006 0.802869 14.5823 0.802869 15.3731 1.59139L16.4069 2.62326C17.1977 3.41263 17.1977 4.69293 16.4069 5.48145L10.0287 11.8482C9.68297 12.1932 9.2141 12.3874 8.72484 12.3874H5.54297L5.62281 9.18243C5.6347 8.71101 5.82752 8.26164 6.16219 7.92757Z" stroke="#130F26" stroke-opacity="0.6" stroke-width="1.5" stroke-linecap="round" stroke-linejoin="round"/>
<path d="M11.5449 2.57031L15.4233 6.44172" stroke="#130F26" stroke-opacity="0.6" stroke-width="1.5" stroke-linecap="round" stroke-linejoin="round"/>
</svg>
