<svg width="24" height="24" viewBox="0 0 24 24" fill="none" xmlns="http://www.w3.org/2000/svg">
<path d="M23.184 2.73205L15.984 0.0670238H15.9C15.8441 0.0607898 15.7879 0.0607898 15.732 0.0670238H15.456H15.3H15.216L8.4 2.66542L1.584 0.0670238C1.40354 0.000946638 1.21153 -0.0165975 1.02377 0.0158351C0.836004 0.0482678 0.657863 0.12975 0.504004 0.253576C0.348914 0.376188 0.222322 0.538017 0.134686 0.725694C0.0470496 0.91337 0.000884344 1.12151 4.00024e-06 1.33291V19.9881C-0.000645394 20.2674 0.0777867 20.5399 0.224214 20.7671C0.370642 20.9942 0.577659 21.1646 0.816004 21.254L8.016 23.919C8.25774 24.0065 8.51826 24.0065 8.76 23.919L15.6 21.3872L22.416 23.9856C22.5434 24.0048 22.6726 24.0048 22.8 23.9856C23.0509 23.9895 23.2958 23.9004 23.496 23.7324C23.6511 23.6098 23.7777 23.448 23.8653 23.2603C23.953 23.0726 23.9991 22.8645 24 22.6531V3.99793C24.0006 3.71858 23.9222 3.44607 23.7758 3.21891C23.6294 2.99175 23.4223 2.82144 23.184 2.73205ZM7.2 20.8009L2.4 19.0287V3.1851L7.2 4.95734V20.8009ZM14.4 19.0287L9.6 20.8009V4.95734L14.4 3.1851V19.0287ZM21.6 20.8009L16.8 19.0287V3.1851L21.6 4.95734V20.8009Z" fill="#484C52"/>
</svg>
