<svg width="20" height="20" viewBox="0 0 20 20" fill="none" xmlns="http://www.w3.org/2000/svg">
<path d="M10.7077 14.3232C10.7536 14.416 10.7689 14.5155 10.7689 14.6151C10.7689 14.8227 10.6914 15.0151 10.546 15.1615C10.3995 15.307 10.2072 15.3845 9.99952 15.3845C9.89999 15.3845 9.79951 15.3615 9.70764 15.3232C9.61481 15.2849 9.5306 15.2304 9.45404 15.1615C9.30762 15.0151 9.23106 14.8227 9.23106 14.6151C9.23106 14.5155 9.24637 14.415 9.29231 14.3232C9.33059 14.2236 9.38514 14.1461 9.45404 14.0696C9.73922 13.7844 10.2617 13.7844 10.546 14.0696C10.6149 14.1461 10.6694 14.2313 10.7077 14.3232ZM20 10.0005C20 15.5146 15.5137 20.001 9.99952 20.001C4.48538 20.001 0 15.5146 0 10.0005C0 4.48634 4.48634 0 10.0005 0C15.5146 0 20.001 4.48634 20.001 10.0005H20ZM18.4621 10.0005C18.4621 5.33423 14.6658 1.53883 10.0005 1.53883C5.33518 1.53883 1.53883 5.33423 1.53883 10.0005C1.53883 14.6667 5.33518 18.4621 10.0005 18.4621C14.6658 18.4621 18.4621 14.6658 18.4621 10.0005ZM10.5517 4.66434C9.63874 4.50452 8.72003 4.74951 8.02239 5.33518C7.32379 5.92181 6.92378 6.78118 6.92378 7.69223C6.92378 8.11713 7.26829 8.46165 7.69319 8.46165C8.11809 8.46165 8.46261 8.11713 8.46261 7.69223C8.46261 7.23671 8.66357 6.80702 9.01287 6.51323C9.36791 6.21465 9.81865 6.0979 10.2866 6.17924C10.8914 6.28547 11.4082 6.80224 11.5144 7.40705C11.6427 8.13436 11.2618 8.83583 10.589 9.11431C9.76506 9.455 9.23202 10.2799 9.23202 11.2149V12.3068C9.23202 12.7317 9.57653 13.0762 10.0014 13.0762C10.4263 13.0762 10.7708 12.7317 10.7708 12.3068V11.2149C10.7708 10.9096 10.9335 10.6369 11.1766 10.5364C12.5221 9.98038 13.2839 8.58319 13.0303 7.14005C12.8121 5.8998 11.7939 4.88062 10.5527 4.66338L10.5517 4.66434Z" fill="black"/>
</svg>
