<svg width="32" height="32" viewBox="0 0 32 32" fill="none" xmlns="http://www.w3.org/2000/svg">
<path d="M16 1C7.71573 1 1 7.71573 1 16C1 18.6583 1.69178 21.1559 2.90535 23.3218C2.27681 24.9862 1.68697 26.9073 1.30086 28.8265C1.07592 29.9447 2.06634 30.8917 3.17185 30.6329C5.00615 30.2034 6.86813 29.607 8.512 29.0001C10.7159 30.2722 13.2734 31 16 31C24.2843 31 31 24.2843 31 16C31 7.71573 24.2843 1 16 1Z" fill="#7949FF" fill-opacity="0.4"/>
<path fill-rule="evenodd" clip-rule="evenodd" d="M20.2184 19.2685C20.6224 18.6528 21.449 18.4813 22.0647 18.8853C22.6804 19.2893 22.8519 20.1159 22.4479 20.7315C20.984 22.9623 18.4312 24 15.9998 24C13.5685 24 11.0157 22.9623 9.55175 20.7315C9.14775 20.1159 9.31929 19.2893 9.93495 18.8853C10.5506 18.4813 11.3772 18.6528 11.7812 19.2685C12.6506 20.5933 14.2645 21.3333 15.9998 21.3333C17.7352 21.3333 19.349 20.5933 20.2184 19.2685ZM11.3332 10C12.0696 10 12.6665 10.5969 12.6665 11.3333V12.6667C12.6665 13.4031 12.0696 14 11.3332 14C10.5968 14 9.99982 13.4031 9.99982 12.6667V11.3333C9.99982 10.5969 10.5968 10 11.3332 10ZM19.3332 11.3333C19.3332 10.5969 19.9301 10 20.6665 10C21.4029 10 21.9998 10.5969 21.9998 11.3333V12.6667C21.9998 13.4031 21.4029 14 20.6665 14C19.9301 14 19.3332 13.4031 19.3332 12.6667V11.3333Z" fill="#7A00E6"/>
</svg>
