<svg width="24" height="24" viewBox="0 0 25 26" fill="none" xmlns="http://www.w3.org/2000/svg">
<path d="M12.498 1C14.9835 1 17.5 2.70858 17.5 5.97363C17.4999 6.67652 17.1001 7.55942 16.5938 8.67773C15.3783 11.364 13.8688 14.6996 17.1533 16.9893H22C23.3785 16.9893 24.5 18.1118 24.5 19.4922V22.4961C24.5 22.6289 24.4473 22.7567 24.3535 22.8506C24.2598 22.9444 24.1326 22.9971 24 22.9971H23.5V24.499C23.5 24.6318 23.4473 24.7596 23.3535 24.8535C23.2598 24.9474 23.1326 25 23 25H2C1.86744 25 1.74024 24.9474 1.64648 24.8535C1.55272 24.7596 1.5 24.6318 1.5 24.499V22.9971H1C0.867419 22.9971 0.740247 22.9444 0.646484 22.8506C0.552716 22.7567 0.5 22.6289 0.5 22.4961V19.4922C0.500046 18.1118 1.62153 16.9893 3 16.9893H7.8457C11.1372 14.6951 9.62668 11.3658 8.40918 8.68457C7.90128 7.56473 7.50008 6.68003 7.5 5.97363C7.5 2.70878 10.0142 1.00021 12.498 1ZM2.5 22.9971V23.999H22.5V22.9971H2.5ZM12.498 2.00098C10.5727 2.00117 8.5 3.24454 8.5 5.97363C8.50011 6.46335 8.89837 7.34134 9.32031 8.27051C10.5618 11.0052 12.4377 15.1375 8.27734 17.9062C8.19521 17.9607 8.09853 17.9902 8 17.9902H3C2.17303 17.9902 1.50005 18.6641 1.5 19.4922V21.9961H23.5V19.4922C23.5 18.6641 22.827 17.9902 22 17.9902H17C16.9016 17.9903 16.8056 17.9608 16.7236 17.9062C12.5707 15.1434 14.4441 11.004 15.6836 8.26465C16.1035 7.33699 16.4999 6.46085 16.5 5.97363C16.5 3.24433 14.4255 2.00098 12.498 2.00098Z" fill="#484C52"/>
<path d="M12.498 1V0.5H12.498L12.498 1ZM17.5 5.97363L18 5.97369V5.97363H17.5ZM16.5938 8.67773L16.1383 8.47149L16.1382 8.47161L16.5938 8.67773ZM17.1533 16.9893L16.8674 17.3994L16.9962 17.4893H17.1533V16.9893ZM24.5 19.4922H25V19.4922L24.5 19.4922ZM24.3535 22.8506L24.7073 23.204L24.7073 23.2039L24.3535 22.8506ZM23.5 22.9971V22.4971H23V22.9971H23.5ZM23.3535 24.8535L23.7072 25.2069L23.7073 25.2068L23.3535 24.8535ZM2 25V25.5V25ZM1.64648 24.8535L1.29268 25.2068L1.29279 25.2069L1.64648 24.8535ZM1.5 24.499H1H1.5ZM1.5 22.9971H2V22.4971H1.5V22.9971ZM1 22.9971L1 23.4971H1V22.9971ZM0.646484 22.8506L0.292685 23.2039L0.292743 23.204L0.646484 22.8506ZM0.5 22.4961H0H0.5ZM0.5 19.4922L0 19.4922V19.4922H0.5ZM3 16.9893V16.4893V16.9893ZM7.8457 16.9893V17.4893H8.00276L8.13161 17.3995L7.8457 16.9893ZM8.40918 8.68457L7.95383 8.89109L7.95392 8.8913L8.40918 8.68457ZM7.5 5.97363H7V5.97369L7.5 5.97363ZM2.5 22.9971V22.4971H2V22.9971H2.5ZM2.5 23.999H2V24.499H2.5V23.999ZM22.5 23.999V24.499H23V23.999H22.5ZM22.5 22.9971H23V22.4971H22.5V22.9971ZM12.498 2.00098V1.50098H12.498L12.498 2.00098ZM8.5 5.97363H8V5.97374L8.5 5.97363ZM9.32031 8.27051L9.7756 8.06383L9.77557 8.06377L9.32031 8.27051ZM8.27734 17.9062L8.55375 18.3229L8.55436 18.3225L8.27734 17.9062ZM8 17.9902V18.4902H8.00024L8 17.9902ZM3 17.9902V17.4902V17.9902ZM1.5 19.4922L1 19.4922V19.4922H1.5ZM1.5 21.9961H1V22.4961H1.5V21.9961ZM23.5 21.9961V22.4961H24V21.9961H23.5ZM23.5 19.4922H24V19.4922L23.5 19.4922ZM17 17.9902V17.4902H16.9998L17 17.9902ZM16.7236 17.9062L17.0008 17.4901L17.0006 17.49L16.7236 17.9062ZM15.6836 8.26465L15.2281 8.05845L15.2281 8.05853L15.6836 8.26465ZM16.5 5.97363L17 5.97374V5.97363H16.5ZM12.498 1V1.5C14.7645 1.5 17 3.03851 17 5.97363H17.5H18C18 2.37865 15.2026 0.5 12.498 0.5V1ZM17.5 5.97363L17 5.97358C17 6.23787 16.9233 6.56931 16.7669 6.99883C16.6115 7.42565 16.3938 7.90717 16.1383 8.47149L16.5938 8.67773L17.0492 8.88398C17.3001 8.32999 17.5355 7.8109 17.7066 7.34096C17.8767 6.87373 18 6.41229 18 5.97369L17.5 5.97363ZM16.5938 8.67773L16.1382 8.47161C15.5392 9.79536 14.8148 11.3829 14.6877 12.9416C14.6231 13.7335 14.7099 14.5364 15.0526 15.3058C15.396 16.0769 15.9824 16.7825 16.8674 17.3994L17.1533 16.9893L17.4393 16.5791C16.682 16.0512 16.2254 15.4812 15.9661 14.8989C15.706 14.315 15.6302 13.6868 15.6844 13.0228C15.7947 11.6697 16.4328 10.2464 17.0493 8.88386L16.5938 8.67773ZM17.1533 16.9893V17.4893H22V16.9893V16.4893H17.1533V16.9893ZM22 16.9893V17.4893C23.1018 17.4893 24 18.3874 24 19.4922L24.5 19.4922L25 19.4922C24.9999 17.8362 23.6551 16.4893 22 16.4893V16.9893ZM24.5 19.4922H24V22.4961H24.5H25V19.4922H24.5ZM24.5 22.4961H24C24 22.4969 23.9995 22.4975 23.9997 22.4973L24.3535 22.8506L24.7073 23.2039C24.895 23.0159 25 22.7609 25 22.4961H24.5ZM24.3535 22.8506L23.9998 22.4972L24 22.4971V22.9971V23.4971C24.2651 23.4971 24.5196 23.3918 24.7073 23.204L24.3535 22.8506ZM24 22.9971V22.4971H23.5V22.9971V23.4971H24V22.9971ZM23.5 22.9971H23V24.499H23.5H24V22.9971H23.5ZM23.5 24.499H23C23 24.4998 22.9995 24.5004 22.9997 24.5002L23.3535 24.8535L23.7073 25.2068C23.895 25.0188 24 24.7638 24 24.499H23.5ZM23.3535 24.8535L22.9998 24.5001L23 24.5V25V25.5C23.2651 25.5 23.5196 25.3947 23.7072 25.2069L23.3535 24.8535ZM23 25V24.5H2V25V25.5H23V25ZM2 25V24.5L2.00018 24.5001L1.64648 24.8535L1.29279 25.2069C1.48041 25.3947 1.73489 25.5 2 25.5V25ZM1.64648 24.8535L2.00028 24.5002C2.00047 24.5004 2 24.4998 2 24.499H1.5H1C1 24.7638 1.10496 25.0188 1.29268 25.2068L1.64648 24.8535ZM1.5 24.499H2V22.9971H1.5H1V24.499H1.5ZM1.5 22.9971V22.4971H1V22.9971V23.4971H1.5V22.9971ZM1 22.9971L1 22.4971L1.00023 22.4972L0.646484 22.8506L0.292743 23.204C0.480426 23.3918 0.734912 23.4971 1 23.4971L1 22.9971ZM0.646484 22.8506L1.00028 22.4973C1.00047 22.4975 1 22.4969 1 22.4961H0.5H0C0 22.7609 0.104961 23.0159 0.292685 23.2039L0.646484 22.8506ZM0.5 22.4961H1V19.4922H0.5H0V22.4961H0.5ZM0.5 19.4922L1 19.4922C1.00004 18.3874 1.8982 17.4893 3 17.4893V16.9893V16.4893C1.34486 16.4893 5.47469e-05 17.8362 0 19.4922L0.5 19.4922ZM3 16.9893V17.4893H7.8457V16.9893V16.4893H3V16.9893ZM7.8457 16.9893L8.13161 17.3995C9.0181 16.7816 9.6057 16.0758 9.95009 15.3048C10.2937 14.5354 10.3811 13.7329 10.3167 12.9415C10.1899 11.3841 9.46441 9.79911 8.86444 8.47784L8.40918 8.68457L7.95392 8.8913C8.57145 10.2513 9.20998 11.6715 9.31997 13.0226C9.37393 13.6855 9.29784 14.313 9.03703 14.8969C8.77696 15.4792 8.31905 16.0499 7.5598 16.5791L7.8457 16.9893ZM8.40918 8.68457L8.86453 8.47805C8.60824 7.91296 8.38984 7.43067 8.23393 7.00286C8.07707 6.57243 8.00003 6.23964 8 5.97358L7.5 5.97363L7 5.97369C7.00005 6.41403 7.12365 6.87679 7.29438 7.34526C7.46606 7.81636 7.70222 8.33634 7.95383 8.89109L8.40918 8.68457ZM7.5 5.97363H8C8 3.03837 10.2337 1.50019 12.4981 1.5L12.498 1L12.498 0.5C9.79471 0.500226 7 2.37919 7 5.97363H7.5ZM2.5 22.9971H2V23.999H2.5H3V22.9971H2.5ZM2.5 23.999V24.499H22.5V23.999V23.499H2.5V23.999ZM22.5 23.999H23V22.9971H22.5H22V23.999H22.5ZM22.5 22.9971V22.4971H2.5V22.9971V23.4971H22.5V22.9971ZM12.498 2.00098L12.498 1.50098C11.4342 1.50108 10.3137 1.84359 9.45116 2.58473C8.57687 3.33593 8 4.46992 8 5.97363H8.5H9C9 4.74825 9.45947 3.89601 10.1029 3.34321C10.758 2.78034 11.6365 2.50106 12.4981 2.50098L12.498 2.00098ZM8.5 5.97363L8 5.97374C8.00008 6.32069 8.13311 6.74027 8.28517 7.13644C8.44393 7.55007 8.65582 8.01647 8.86505 8.47724L9.32031 8.27051L9.77557 8.06377C9.56287 7.59537 9.36465 7.1582 9.21877 6.77811C9.06618 6.38057 9.00003 6.1163 9 5.97352L8.5 5.97363ZM9.32031 8.27051L8.86503 8.47719C9.49329 9.86113 10.2279 11.493 10.3254 13.1058C10.3735 13.9003 10.2648 14.6743 9.91852 15.4024C9.57285 16.1291 8.97595 16.8407 8.00033 17.49L8.27734 17.9062L8.55436 18.3225C9.65893 17.5874 10.3877 16.7441 10.8216 15.8319C11.2548 14.9211 11.3797 13.9719 11.3236 13.0454C11.2129 11.2162 10.3888 9.41462 9.7756 8.06383L9.32031 8.27051ZM8.27734 17.9062L8.00094 17.4896C7.99988 17.4903 7.9991 17.4902 7.99976 17.4902L8 17.9902L8.00024 18.4902C8.19795 18.4901 8.39053 18.4312 8.55375 18.3229L8.27734 17.9062ZM8 17.9902V17.4902H3V17.9902V18.4902H8V17.9902ZM3 17.9902V17.4902C1.89626 17.4902 1.00006 18.3885 1 19.4922L1.5 19.4922L2 19.4922C2.00003 18.9396 2.44979 18.4902 3 18.4902V17.9902ZM1.5 19.4922H1V21.9961H1.5H2V19.4922H1.5ZM1.5 21.9961V22.4961H23.5V21.9961V21.4961H1.5V21.9961ZM23.5 21.9961H24V19.4922H23.5H23V21.9961H23.5ZM23.5 19.4922L24 19.4922C23.9999 18.3885 23.1037 17.4902 22 17.4902V17.9902V18.4902C22.5502 18.4902 23 18.9396 23 19.4922L23.5 19.4922ZM22 17.9902V17.4902H17V17.9902V18.4902H22V17.9902ZM17 17.9902L16.9998 17.4902L17.0008 17.4901L16.7236 17.9062L16.4465 18.3224C16.6093 18.4309 16.8017 18.4903 17.0002 18.4902L17 17.9902ZM16.7236 17.9062L17.0006 17.49C16.0271 16.8423 15.4314 16.1315 15.0865 15.405C14.7409 14.6769 14.6324 13.9024 14.6805 13.1068C14.7782 11.492 15.5119 9.85698 16.1391 8.47077L15.6836 8.26465L15.2281 8.05853C14.6158 9.41163 13.7931 11.2159 13.6824 13.0464C13.6263 13.9735 13.7507 14.9231 14.1831 15.8338C14.6162 16.746 15.3437 17.5888 16.4467 18.3225L16.7236 17.9062ZM15.6836 8.26465L16.1391 8.47085C16.3473 8.01085 16.5582 7.54535 16.7162 7.13277C16.8674 6.73773 16.9999 6.31929 17 5.97374L16.5 5.97363L16 5.97352C16 6.11519 15.9342 6.37843 15.7823 6.77518C15.6371 7.15439 15.4398 7.59079 15.2281 8.05845L15.6836 8.26465ZM16.5 5.97363H17C17 4.46968 16.4226 3.33559 15.5475 2.58442C14.6842 1.84335 13.5628 1.50098 12.498 1.50098V2.00098V2.50098C13.3608 2.50098 14.2404 2.78028 14.8962 3.34321C15.5402 3.89605 16 4.74829 16 5.97363H16.5Z" fill="#484C52"/>
</svg>
