<svg width="15" height="15" viewBox="0 0 15 15" fill="none" xmlns="http://www.w3.org/2000/svg">
<path d="M8.46663 14.3419L14.7825 8.03357C14.852 7.96348 14.907 7.88035 14.9443 7.78896C14.9816 7.69757 15.0006 7.59971 15 7.501V0.750111C15 0.551172 14.921 0.360382 14.7803 0.219711C14.6396 0.0790405 14.4488 1.25374e-05 14.2499 1.25374e-05L7.499 1.25374e-05C7.40029 -0.000558207 7.30243 0.0183631 7.21104 0.0556914C7.11965 0.0930198 7.03652 0.148021 6.96643 0.217541L0.658106 6.53337C0.236699 6.9553 0 7.52725 0 8.12358C0 8.71991 0.236699 9.29185 0.658106 9.71379L5.24871 14.3419C5.67064 14.7633 6.24259 15 6.83892 15C7.43525 15 8.00719 14.7633 8.42913 14.3419H8.46663ZM6.35135 13.2843L1.72325 8.64865C1.58354 8.50811 1.50512 8.31799 1.50512 8.11983C1.50512 7.92166 1.58354 7.73155 1.72325 7.59101L7.80654 1.50021L13.4998 1.50021V7.19346L7.40899 13.2843C7.3389 13.3538 7.25578 13.4088 7.16439 13.4461C7.073 13.4834 6.97514 13.5024 6.87642 13.5018C6.67964 13.501 6.49107 13.4228 6.35135 13.2843Z" fill="#313131"/>
</svg>
