<svg width="20" height="20" viewBox="0 0 20 20" fill="none" xmlns="http://www.w3.org/2000/svg">
<path d="M5 5.625C5 5.27982 5.27982 5 5.625 5H7.5C7.84518 5 8.125 5.27982 8.125 5.625C8.125 5.97018 7.84518 6.25 7.5 6.25V6.875H12.6745L13.1571 5.42736C13.2421 5.17214 13.481 5 13.75 5H15C15.3452 5 15.625 5.27982 15.625 5.625C15.625 5.97018 15.3452 6.25 15 6.25H14.2005L13.811 7.41838L14.8198 9.03239C15.2605 8.8504 15.7435 8.75 16.25 8.75C18.3211 8.75 20 10.4289 20 12.5C20 14.5711 18.3211 16.25 16.25 16.25C14.1789 16.25 12.5 14.5711 12.5 12.5C12.5 11.3844 12.9871 10.3826 13.7603 9.6957L13.125 8.67925L10.53 12.8312C10.4158 13.014 10.2155 13.125 10 13.125H7.44815C7.1506 14.8986 5.60812 16.25 3.75 16.25C1.67893 16.25 0 14.5711 0 12.5C0 10.4289 1.67893 8.75 3.75 8.75C4.25646 8.75 4.73948 8.8504 5.18023 9.03239L6.25 7.32075V6.25H5.625C5.27982 6.25 5 5.97018 5 5.625ZM6.875 8.67925L6.23972 9.6957C6.86529 10.2515 7.30361 11.0134 7.44815 11.875H8.87234L6.875 8.67925ZM10 11.3208L11.9973 8.125H8.00266L10 11.3208ZM6.17124 11.875C6.06373 11.4573 5.85097 11.0818 5.56293 10.7786L4.87765 11.875H6.17124ZM4.50329 10.1155C4.26557 10.0405 4.01251 10 3.75 10C2.36929 10 1.25 11.1193 1.25 12.5C1.25 13.8807 2.36929 15 3.75 15C4.9149 15 5.89371 14.2033 6.17124 13.125H3.75C3.5228 13.125 3.31349 13.0017 3.20335 12.803C3.09321 12.6043 3.09958 12.3614 3.22 12.1688L4.50329 10.1155ZM14.4371 10.7786C14.0113 11.2269 13.75 11.8329 13.75 12.5C13.75 13.8807 14.8693 15 16.25 15C17.6307 15 18.75 13.8807 18.75 12.5C18.75 11.1193 17.6307 10 16.25 10C15.9875 10 15.7344 10.0405 15.4967 10.1155L16.78 12.1688C16.9629 12.4615 16.874 12.8471 16.5812 13.03C16.2885 13.2129 15.9029 13.124 15.72 12.8312L14.4371 10.7786Z" fill="white"/>
</svg>
