<svg width="20" height="20" viewBox="0 0 20 20" fill="none" xmlns="http://www.w3.org/2000/svg">
<g clip-path="url(#clip0_1185_8446)">
<path d="M5.49562 14.5042C5.61781 14.6264 5.7775 14.6874 5.9375 14.6874C6.0975 14.6874 6.25718 14.6264 6.37937 14.5042L10 10.8836L13.6206 14.5042C13.7428 14.6264 13.9025 14.6874 14.0625 14.6874C14.2225 14.6874 14.3822 14.6264 14.5044 14.5042C14.6215 14.387 14.6874 14.2281 14.6874 14.0624C14.6874 13.8966 14.6215 13.7377 14.5044 13.6205L10.8837 9.99987L14.5044 6.37924C14.5641 6.32159 14.6117 6.25262 14.6444 6.17637C14.6772 6.10012 14.6944 6.01811 14.6952 5.93512C14.6959 5.85213 14.6801 5.76983 14.6486 5.69302C14.6172 5.61621 14.5708 5.54643 14.5121 5.48775C14.4534 5.42906 14.3837 5.38266 14.3068 5.35123C14.23 5.3198 14.1477 5.30399 14.0647 5.30471C13.9818 5.30543 13.8997 5.32267 13.8235 5.35543C13.7472 5.38818 13.6783 5.4358 13.6206 5.49549L10 9.11612L6.37937 5.49549C6.32172 5.4358 6.25275 5.38818 6.1765 5.35543C6.10025 5.32267 6.01824 5.30543 5.93525 5.30471C5.85226 5.30399 5.76996 5.3198 5.69315 5.35123C5.61634 5.38266 5.54656 5.42906 5.48788 5.48775C5.42919 5.54643 5.38278 5.61621 5.35136 5.69302C5.31993 5.76983 5.30412 5.85213 5.30484 5.93512C5.30556 6.01811 5.3228 6.10012 5.35556 6.17637C5.38831 6.25262 5.43593 6.32159 5.49562 6.37924L9.11625 9.99987L5.49562 13.6205C5.37845 13.7377 5.31263 13.8966 5.31263 14.0624C5.31263 14.2281 5.37845 14.387 5.49562 14.5042Z" fill="black"/>
<path d="M10 20C12.6709 20 15.1822 18.9597 17.0706 17.0709C18.9597 15.1822 20 12.6709 20 10C20 7.32906 18.9597 4.81781 17.0706 2.92937C15.1822 1.04031 12.6709 0 10 0C7.32906 0 4.81781 1.04031 2.92937 2.92906C1.04031 4.81781 0 7.32906 0 10C0 12.6709 1.04031 15.1822 2.92937 17.0706C4.81781 18.9597 7.32906 20 10 20ZM3.81312 3.81312C5.46562 2.16031 7.66281 1.25 10 1.25C12.3372 1.25 14.5344 2.16031 16.1869 3.81312C17.8397 5.46562 18.75 7.66281 18.75 10C18.75 12.3372 17.8397 14.5344 16.1869 16.1869C14.5344 17.8397 12.3372 18.75 10 18.75C7.66281 18.75 5.46562 17.8397 3.81312 16.1869C2.16031 14.5344 1.25 12.3372 1.25 10C1.25 7.66281 2.16031 5.46562 3.81312 3.81312Z" fill="black"/>
</g>
<defs>
<clipPath id="clip0_1185_8446">
<rect width="20" height="20" fill="white"/>
</clipPath>
</defs>
</svg>
