<svg width="75" height="24" viewBox="0 0 75 24" fill="none" xmlns="http://www.w3.org/2000/svg">
<path fill-rule="evenodd" clip-rule="evenodd" d="M36.8861 1.21065C37.2472 0.929784 37.7528 0.929784 38.1139 1.21065L47.1139 8.21065C47.3575 8.4001 47.5 8.69141 47.5 9V20C47.5 20.7957 47.1839 21.5587 46.6213 22.1213C46.0587 22.6839 45.2957 23 44.5 23H30.5C29.7044 23 28.9413 22.6839 28.3787 22.1213C27.8161 21.5587 27.5 20.7957 27.5 20V9C27.5 8.69141 27.6425 8.4001 27.8861 8.21065L36.8861 1.21065ZM29.5 9.48908V20C29.5 20.2652 29.6054 20.5196 29.7929 20.7071C29.9804 20.8946 30.2348 21 30.5 21H44.5C44.7652 21 45.0196 20.8946 45.2071 20.7071C45.3947 20.5196 45.5 20.2652 45.5 20V9.48908L37.5 3.26686L29.5 9.48908Z" fill="#484C52"/>
<path fill-rule="evenodd" clip-rule="evenodd" d="M33.5 12C33.5 11.4477 33.9477 11 34.5 11H40.5C41.0523 11 41.5 11.4477 41.5 12V22C41.5 22.5523 41.0523 23 40.5 23C39.9477 23 39.5 22.5523 39.5 22V13H35.5V22C35.5 22.5523 35.0523 23 34.5 23C33.9477 23 33.5 22.5523 33.5 22V12Z" fill="#484C52"/>
</svg>
