<svg width="20" height="17" viewBox="0 0 20 17" fill="none" xmlns="http://www.w3.org/2000/svg">
<path d="M18.9892 7.12947L10.4901 0.17568C10.3519 0.0621237 10.1785 0 9.99957 0C9.82062 0 9.64721 0.0621237 9.509 0.17568L1.00993 7.12947C0.795894 7.30477 0.691767 7.58092 0.736661 7.85382C0.781429 8.12671 0.968428 8.35494 1.22722 8.45268C1.48603 8.55027 1.77715 8.50236 1.99108 8.32718L3.0458 7.46172V14.6821C3.0458 15.2968 3.29002 15.8864 3.72476 16.321C4.15937 16.7558 4.74903 17 5.36373 17H14.6354C15.2501 17 15.8398 16.7558 16.2744 16.321C16.7092 15.8864 16.9534 15.2968 16.9534 14.6821V7.46172L18.0081 8.32705V8.32718C18.1466 8.4401 18.32 8.50147 18.4987 8.50097C18.7129 8.5016 18.9178 8.41332 19.0644 8.257C19.2111 8.10081 19.2861 7.89067 19.2719 7.67701C19.2577 7.46322 19.1553 7.2649 18.9892 7.12947ZM8.45421 15.4547V11.5915C8.45421 11.3866 8.53558 11.1901 8.68057 11.0452C8.82544 10.9002 9.02198 10.8188 9.22686 10.8188H10.7721C10.977 10.8188 11.1736 10.9002 11.3184 11.0452C11.4634 11.1901 11.5448 11.3866 11.5448 11.5915V15.4547H8.45421ZM15.408 14.6821C15.408 14.8869 15.3266 15.0835 15.1816 15.2283C15.0368 15.3733 14.8402 15.4547 14.6354 15.4547H13.0901V11.5915C13.0901 10.9768 12.8458 10.3871 12.4111 9.95252C11.9765 9.51778 11.3868 9.27356 10.7721 9.27356H9.22685C8.61215 9.27356 8.02249 9.51777 7.58788 9.95252C7.15314 10.3871 6.90892 10.9768 6.90892 11.5915V15.4547H5.36364C5.15878 15.4547 4.96222 15.3733 4.81735 15.2283C4.67235 15.0835 4.59099 14.8869 4.59099 14.6821V6.18298L9.99949 1.77119L15.408 6.18298L15.408 14.6821Z" fill="#2B2B2B"/>
</svg>
