<svg width="18" height="19" viewBox="0 0 18 19" fill="none" xmlns="http://www.w3.org/2000/svg">
<path d="M11.8 18.3246L5.725 16.1746L1.025 18.0496C0.891665 18.0996 0.766665 18.1121 0.65 18.0871C0.533335 18.0621 0.425 18.0163 0.325 17.9496C0.225 17.883 0.145835 17.7996 0.0875001 17.6996C0.0291651 17.5996 0 17.483 0 17.3496V3.22461C0 3.00796 0.0625 2.81626 0.1875 2.64961C0.3125 2.48294 0.475 2.35794 0.675 2.27461L5.225 0.674609C5.30835 0.641274 5.39165 0.620439 5.475 0.612109C5.55835 0.603774 5.64165 0.599609 5.725 0.599609C5.80835 0.599609 5.89165 0.603774 5.975 0.612109C6.05835 0.620439 6.14165 0.641274 6.225 0.674609L12.3 2.79961L16.975 0.924609C17.1084 0.874609 17.2334 0.857939 17.35 0.874609C17.4667 0.891274 17.575 0.932939 17.675 0.999609C17.775 1.06627 17.8542 1.15377 17.9125 1.26211C17.9708 1.37044 18 1.49127 18 1.62461V15.9246C18 16.108 17.9375 16.2663 17.8125 16.3996C17.6875 16.533 17.5333 16.633 17.35 16.6996L12.8 18.3246C12.7167 18.358 12.6334 18.3788 12.55 18.3871C12.4667 18.3955 12.3834 18.3996 12.3 18.3996C12.2167 18.3996 12.1334 18.3955 12.05 18.3871C11.9667 18.3788 11.8834 18.358 11.8 18.3246ZM11.45 16.6246V3.99961L6.55 2.34961V14.9746L11.45 16.6246ZM12.95 16.6246L16.5 15.4496V2.64961L12.95 3.99961V16.6246ZM1.5 16.3246L5.05 14.9746V2.34961L1.5 3.52461V16.3246Z" fill="black"/>
</svg>
