<svg width="22" height="21" viewBox="0 0 22 21" fill="none" xmlns="http://www.w3.org/2000/svg">
<path d="M20.9189 8.60601C20.9991 8.05919 20.6209 7.55089 20.0742 7.47063L14.4228 6.64446L11.8974 1.49797C11.8065 1.34099 11.676 1.21062 11.5189 1.11986C11.0228 0.833179 10.3882 1.00286 10.1015 1.49895L7.57709 6.64446L1.92572 7.47069C1.70965 7.50237 1.50995 7.60393 1.35693 7.75975C0.969785 8.1541 0.975706 8.78765 1.37005 9.17479L5.46283 13.1875L4.49701 18.8516C4.48785 18.9058 4.48315 18.9606 4.48303 19.0157C4.4815 19.5691 4.92889 20.019 5.48236 20.0205C5.64551 20.0203 5.80615 19.98 5.95013 19.9033L10.9999 17.2334L16.0488 19.9023C16.2439 20.0059 16.4678 20.042 16.6855 20.0049C17.2297 19.912 17.5956 19.3957 17.5029 18.8516L16.537 13.1875L20.6308 9.17376C20.7861 9.02092 20.8872 8.82158 20.9189 8.60601ZM15.6503 12.6562C15.5333 12.771 15.4797 12.9358 15.5068 13.0976L16.5165 19.0185L11.2333 16.2255C11.087 16.1493 10.9128 16.1493 10.7665 16.2255L5.48334 19.0195L6.49304 13.0976C6.5202 12.9359 6.46661 12.7711 6.34948 12.6562L2.07019 8.46093L7.9823 7.59667C8.14557 7.57225 8.28644 7.46935 8.35931 7.32128L10.9999 1.9395L13.6405 7.32122C13.7134 7.46929 13.8543 7.57219 14.0175 7.59661L19.9306 8.45989L15.6503 12.6562Z" fill="black" stroke="black" stroke-width="0.25"/>
</svg>
