<svg width="18" height="17" viewBox="0 0 18 17" fill="none" xmlns="http://www.w3.org/2000/svg">
<path d="M1.20836 17H16.7917C16.9795 17 17.1597 16.9254 17.2925 16.7925C17.4254 16.6597 17.5 16.4795 17.5 16.2917V14.8254C17.4999 14.2379 17.3172 13.6649 16.9769 13.1859C16.6369 12.7069 16.1563 12.3453 15.6017 12.1514L11.8333 10.8304V10.2248C12.7387 9.26733 13.2453 8.00086 13.25 6.68312V3.51333C13.1685 1.60795 11.2241 0 9 0C6.77586 0 4.83146 1.60792 4.75 3.54167V6.68312C4.75472 8.00086 5.2613 9.26733 6.16666 10.2248V10.8304L2.39833 12.1514C1.84368 12.3453 1.36316 12.7068 1.02304 13.1859C0.682837 13.6649 0.500088 14.2379 0.499969 14.8254V16.2917C0.499969 16.4795 0.57456 16.6597 0.707487 16.7925C0.8403 16.9254 1.02048 17 1.20831 17H1.20836ZM1.91669 14.8254C1.91634 14.5313 2.00765 14.2445 2.1777 14.0046C2.34775 13.7648 2.58824 13.5836 2.86585 13.4867L7.11585 12.0027C7.25327 11.953 7.37202 11.8621 7.45573 11.7422C7.53943 11.6224 7.58405 11.4795 7.58335 11.3333V9.91667C7.58358 9.72091 7.50288 9.53366 7.36027 9.39958C6.60628 8.69644 6.17464 7.71408 6.1667 6.68316V3.57003C6.2127 2.42256 7.53735 1.41667 9.00003 1.41667C10.4627 1.41667 11.7874 2.42244 11.8334 3.54167V6.68313C11.8293 7.719 11.3974 8.70713 10.6398 9.41375C10.5008 9.54449 10.4203 9.72583 10.4167 9.91664V11.3333C10.4166 11.4803 10.4621 11.6237 10.5472 11.7437C10.6323 11.8636 10.7525 11.9541 10.8912 12.0027L15.1412 13.4866C15.4176 13.5849 15.6566 13.7663 15.8252 14.0061C15.994 14.2459 16.0842 14.5322 16.0834 14.8254V15.5833H1.91671L1.91669 14.8254Z" fill="#2B2B2B"/>
</svg>
