<svg width="22" height="16" viewBox="0 0 22 16" fill="none" xmlns="http://www.w3.org/2000/svg">
<path d="M8.8005 2.13388C9.28867 1.64573 9.28867 0.854263 8.8005 0.366113C8.31233 -0.122038 7.521 -0.122038 7.03278 0.366113L0.366116 7.03283C0.122033 7.27683 0 7.59683 0 7.91666C0 8.08616 0.0337334 8.24783 0.0948501 8.39516C0.15585 8.5425 0.246266 8.68066 0.366116 8.8005L7.03278 15.4672C7.521 15.9553 8.31233 15.9553 8.8005 15.4672C9.28867 14.979 9.28867 14.1877 8.8005 13.6995L4.26777 9.16666H20.4167C21.107 9.16666 21.6667 8.607 21.6667 7.91666C21.6667 7.22633 21.107 6.66666 20.4167 6.66666H4.26777L8.8005 2.13388Z" fill="#6C757D"/>
</svg>
