<svg width="60" height="60" viewBox="0 0 60 60" fill="none" xmlns="http://www.w3.org/2000/svg">
<rect width="60" height="60" rx="30" fill="#7A00E6"/>
<path d="M50 48.7021C49.9998 49.4214 49.4178 50 48.7002 50H11.2998C10.5822 49.9999 10.0002 49.418 10 48.7021V48.7002H50V48.7021ZM50 48.7002C49.9992 47.9814 49.4175 47.4004 48.7002 47.4004H11.2998C10.5826 47.4004 10.0008 47.9848 10 48.7002V11.3018C10.0001 12.0178 10.5821 12.5996 11.2998 12.5996H48.7002C49.4179 12.5996 49.9999 12.0211 50 11.3018V48.7002ZM34.3496 22.9004C33.6512 22.9004 33 23.2487 33 23.9492V31.8984C33 33.4998 32.4993 34.5497 31.2012 34.5498C29.9029 34.5498 29.3506 33.5495 29.3506 31.8984V23.9492C29.3506 23.2491 28.5991 22.9004 27.9502 22.9004C27.2006 22.9005 26.5498 23.2488 26.5498 23.9492V32.1982C26.5498 35.4986 28.2012 36.9999 31.2012 37C33.8996 37 35.7011 35.4494 35.7012 32.25V23.9492C35.7012 23.2491 35.0006 22.9004 34.3496 22.9004ZM41.2002 22.7988C38.8509 22.7989 36.9005 24.3494 36.9004 26.8486C36.9004 28.7996 37.9005 29.8985 39.502 30.7998L40.6494 31.4492C41.3496 31.8495 41.7998 32.3997 41.7998 33.1494C41.7998 34.1001 40.9005 34.5497 40.001 34.5498C39.3008 34.5498 38.4498 34.25 38 34.0488C37.2507 33.6998 36.8509 34.1517 36.6006 34.9502C36.3503 35.7986 36.7504 36.1503 37.4014 36.4502C38.0012 36.75 39.0507 37 40.001 37C42.4508 37 44.4511 35.349 44.4512 32.751C44.4512 30.7014 43.298 29.5002 41.8516 28.6992L40.751 28.0996C40.1021 27.7502 39.5508 27.1994 39.5508 26.501C39.5509 25.7001 40.2005 25.1504 41.1514 25.1504C41.8001 25.1505 42.3999 25.4002 42.8496 25.5996C43.5514 25.949 44.0007 25.499 44.2002 24.751C44.4504 23.8994 44.0997 23.5997 43.5 23.2998C42.9003 23 42.0484 22.7988 41.2002 22.7988ZM17.2998 22.9492C16.5999 22.9494 16.2022 23.5007 16.2021 24.0986V35.7988C16.2025 36.5007 16.9004 36.8496 17.5508 36.8496H21.1006C23.2505 36.8496 25.2499 35.7027 25.25 32.8506C25.25 30.5523 23.6509 29.7007 22.8008 29.5508V29.499C23.8008 28.9996 25.0019 28.0514 25.002 26.3496C25.002 24.0492 22.9997 22.9492 21.0488 22.9492H17.2998ZM20.251 30.6514C21.2493 30.6514 22.6025 31.0018 22.6025 32.5508C22.6024 33.9 21.8506 34.5508 20.251 34.5508H19.0498V30.6514H20.251ZM19.9512 25.248C21.1507 25.248 22.2012 25.6486 22.2012 26.998C22.2009 28.3471 21.0993 28.749 19.9512 28.749H18.8994V25.248H19.9512ZM48.7002 10C49.4174 10 49.999 10.5812 50 11.2998H10C10.001 10.5845 10.5827 10.0001 11.2998 10H48.7002Z" fill="white"/>
</svg>
