<svg width="61" height="60" viewBox="0 0 61 60" fill="none" xmlns="http://www.w3.org/2000/svg">
<rect x="0.75" width="60" height="60" rx="30" fill="white"/>
<path d="M43.25 22.5H15.75C15.4185 22.5 15.1005 22.6317 14.8661 22.8661C14.6317 23.1005 14.5 23.4185 14.5 23.75V31.25C14.5037 33.3781 14.9588 35.4812 15.8353 37.4205C16.7117 39.3597 17.9895 41.091 19.5844 42.5H15.75C15.4185 42.5 15.1005 42.6317 14.8661 42.8661C14.6317 43.1005 14.5 43.4185 14.5 43.75C14.5 44.0815 14.6317 44.3995 14.8661 44.6339C15.1005 44.8683 15.4185 45 15.75 45H43.25C43.5815 45 43.8995 44.8683 44.1339 44.6339C44.3683 44.3995 44.5 44.0815 44.5 43.75C44.5 43.4185 44.3683 43.1005 44.1339 42.8661C43.8995 42.6317 43.5815 42.5 43.25 42.5H39.4156C41.33 40.8033 42.7817 38.6478 43.6344 36.2359C45.222 36.1381 46.7127 35.4386 47.8025 34.2799C48.8924 33.1213 49.4994 31.5907 49.5 30V28.75C49.5 27.0924 48.8415 25.5027 47.6694 24.3306C46.4973 23.1585 44.9076 22.5 43.25 22.5ZM47 30C46.9994 30.8087 46.7375 31.5956 46.2531 32.2432C45.7688 32.8909 45.0881 33.3646 44.3125 33.5938C44.4364 32.8186 44.4991 32.035 44.5 31.25V25.2156C45.2309 25.4741 45.8638 25.9527 46.3115 26.5856C46.7592 27.2186 46.9998 27.9747 47 28.75V30ZM28.25 18.75V13.75C28.25 13.4185 28.3817 13.1005 28.6161 12.8661C28.8505 12.6317 29.1685 12.5 29.5 12.5C29.8315 12.5 30.1495 12.6317 30.3839 12.8661C30.6183 13.1005 30.75 13.4185 30.75 13.75V18.75C30.75 19.0815 30.6183 19.3995 30.3839 19.6339C30.1495 19.8683 29.8315 20 29.5 20C29.1685 20 28.8505 19.8683 28.6161 19.6339C28.3817 19.3995 28.25 19.0815 28.25 18.75ZM33.25 18.75V13.75C33.25 13.4185 33.3817 13.1005 33.6161 12.8661C33.8505 12.6317 34.1685 12.5 34.5 12.5C34.8315 12.5 35.1495 12.6317 35.3839 12.8661C35.6183 13.1005 35.75 13.4185 35.75 13.75V18.75C35.75 19.0815 35.6183 19.3995 35.3839 19.6339C35.1495 19.8683 34.8315 20 34.5 20C34.1685 20 33.8505 19.8683 33.6161 19.6339C33.3817 19.3995 33.25 19.0815 33.25 18.75ZM23.25 18.75V13.75C23.25 13.4185 23.3817 13.1005 23.6161 12.8661C23.8505 12.6317 24.1685 12.5 24.5 12.5C24.8315 12.5 25.1495 12.6317 25.3839 12.8661C25.6183 13.1005 25.75 13.4185 25.75 13.75V18.75C25.75 19.0815 25.6183 19.3995 25.3839 19.6339C25.1495 19.8683 24.8315 20 24.5 20C24.1685 20 23.8505 19.8683 23.6161 19.6339C23.3817 19.3995 23.25 19.0815 23.25 18.75Z" fill="black"/>
</svg>
