<svg width="61" height="60" viewBox="0 0 61 60" fill="none" xmlns="http://www.w3.org/2000/svg">
<rect x="0.75" width="60" height="60" rx="30" fill="#7A00E6"/>
<path d="M23.25 18.75V13.75C23.25 13.4185 23.3817 13.1005 23.6161 12.8661C23.8505 12.6317 24.1685 12.5 24.5 12.5C24.8315 12.5 25.1495 12.6317 25.3839 12.8661C25.6183 13.1005 25.75 13.4185 25.75 13.75V18.75C25.75 19.0815 25.6183 19.3995 25.3839 19.6339C25.1495 19.8683 24.8315 20 24.5 20C24.1685 20 23.8505 19.8683 23.6161 19.6339C23.3817 19.3995 23.25 19.0815 23.25 18.75ZM29.5 20C29.8315 20 30.1495 19.8683 30.3839 19.6339C30.6183 19.3995 30.75 19.0815 30.75 18.75V13.75C30.75 13.4185 30.6183 13.1005 30.3839 12.8661C30.1495 12.6317 29.8315 12.5 29.5 12.5C29.1685 12.5 28.8505 12.6317 28.6161 12.8661C28.3817 13.1005 28.25 13.4185 28.25 13.75V18.75C28.25 19.0815 28.3817 19.3995 28.6161 19.6339C28.8505 19.8683 29.1685 20 29.5 20ZM34.5 20C34.8315 20 35.1495 19.8683 35.3839 19.6339C35.6183 19.3995 35.75 19.0815 35.75 18.75V13.75C35.75 13.4185 35.6183 13.1005 35.3839 12.8661C35.1495 12.6317 34.8315 12.5 34.5 12.5C34.1685 12.5 33.8505 12.6317 33.6161 12.8661C33.3817 13.1005 33.25 13.4185 33.25 13.75V18.75C33.25 19.0815 33.3817 19.3995 33.6161 19.6339C33.8505 19.8683 34.1685 20 34.5 20ZM49.5 28.75V30C49.4995 31.5899 48.8931 33.1199 47.8042 34.2784C46.7154 35.437 45.2259 36.137 43.6391 36.2359C42.7864 38.6478 41.3347 40.8033 39.4203 42.5H43.25C43.5815 42.5 43.8995 42.6317 44.1339 42.8661C44.3683 43.1005 44.5 43.4185 44.5 43.75C44.5 44.0815 44.3683 44.3995 44.1339 44.6339C43.8995 44.8683 43.5815 45 43.25 45H15.75C15.4185 45 15.1005 44.8683 14.8661 44.6339C14.6317 44.3995 14.5 44.0815 14.5 43.75C14.5 43.4185 14.6317 43.1005 14.8661 42.8661C15.1005 42.6317 15.4185 42.5 15.75 42.5H19.5844C17.9895 41.091 16.7117 39.3597 15.8353 37.4205C14.9588 35.4812 14.5037 33.3781 14.5 31.25V23.75C14.5 23.4185 14.6317 23.1005 14.8661 22.8661C15.1005 22.6317 15.4185 22.5 15.75 22.5H43.25C44.9076 22.5 46.4973 23.1585 47.6694 24.3306C48.8415 25.5027 49.5 27.0924 49.5 28.75ZM42 25H17V31.25C17.0048 33.597 17.6681 35.8956 18.9144 37.8843C20.1607 39.8731 21.94 41.4723 24.05 42.5H34.95C37.06 41.4723 38.8393 39.8731 40.0856 37.8843C41.3319 35.8956 41.9952 33.597 42 31.25V25ZM47 28.75C46.9998 27.9747 46.7592 27.2186 46.3115 26.5856C45.8638 25.9527 45.2309 25.4741 44.5 25.2156V31.25C44.4991 32.035 44.4364 32.8186 44.3125 33.5938C45.0881 33.3646 45.7688 32.8909 46.2531 32.2432C46.7375 31.5956 46.9994 30.8087 47 30V28.75Z" fill="white"/>
</svg>
