<svg width="60" height="60" viewBox="0 0 60 60" fill="none" xmlns="http://www.w3.org/2000/svg">
<rect width="60" height="60" rx="30" fill="#7A00E6"/>
<g clip-path="url(#clip0_1185_15095)">
<path d="M21.25 23.7507V16.2507C21.25 15.9192 21.3817 15.6013 21.6161 15.3669C21.8505 15.1324 22.1685 15.0007 22.5 15.0007C22.8315 15.0007 23.1495 15.1324 23.3839 15.3669C23.6183 15.6013 23.75 15.9192 23.75 16.2507V23.7507C23.75 24.0823 23.6183 24.4002 23.3839 24.6346C23.1495 24.8691 22.8315 25.0007 22.5 25.0007C22.1685 25.0007 21.8505 24.8691 21.6161 24.6346C21.3817 24.4002 21.25 24.0823 21.25 23.7507ZM43.75 16.2507V45.0007C43.75 45.3323 43.6183 45.6502 43.3839 45.8846C43.1495 46.1191 42.8315 46.2507 42.5 46.2507C42.1685 46.2507 41.8505 46.1191 41.6161 45.8846C41.3817 45.6502 41.25 45.3323 41.25 45.0007V37.5007H33.75C33.4185 37.5007 33.1005 37.3691 32.8661 37.1346C32.6317 36.9002 32.5 36.5823 32.5 36.2507C32.5581 33.2565 32.9363 30.277 33.6281 27.3633C35.1563 21.0367 38.0531 16.7961 42.0078 15.1023C42.1979 15.0209 42.4052 14.9879 42.6112 15.0063C42.8171 15.0247 43.0153 15.0939 43.188 15.2077C43.3606 15.3215 43.5023 15.4764 43.6004 15.6584C43.6985 15.8404 43.7499 16.044 43.75 16.2507ZM41.25 18.4226C36.2235 22.2617 35.2391 31.6132 35.0469 35.0007H41.25V18.4226ZM28.7328 16.0461C28.7083 15.8819 28.6514 15.7243 28.5654 15.5824C28.4794 15.4405 28.3659 15.3172 28.2317 15.2195C28.0975 15.1219 27.9452 15.052 27.7837 15.0139C27.6222 14.9758 27.4547 14.9702 27.291 14.9975C27.1273 15.0248 26.9707 15.0844 26.8303 15.1728C26.6899 15.2613 26.5685 15.3768 26.4732 15.5126C26.3779 15.6485 26.3106 15.802 26.2752 15.9641C26.2399 16.1262 26.2371 16.2938 26.2672 16.457L27.5 23.8492C27.5 25.1753 26.9732 26.447 26.0355 27.3847C25.0979 28.3224 23.8261 28.8492 22.5 28.8492C21.1739 28.8492 19.9022 28.3224 18.9645 27.3847C18.0268 26.447 17.5 25.1753 17.5 23.8492L18.7313 16.457C18.7613 16.2938 18.7586 16.1262 18.7233 15.9641C18.6879 15.802 18.6206 15.6485 18.5253 15.5126C18.43 15.3768 18.3086 15.2613 18.1682 15.1728C18.0278 15.0844 17.8712 15.0248 17.7075 14.9975C17.5438 14.9702 17.3763 14.9758 17.2148 15.0139C17.0533 15.052 16.901 15.1219 16.7668 15.2195C16.6325 15.3172 16.5191 15.4405 16.4331 15.5824C16.347 15.7243 16.2901 15.8819 16.2656 16.0461L15.0156 23.5461C15.0049 23.6138 14.9997 23.6822 15 23.7507C15.0025 25.5223 15.6311 27.236 16.7748 28.589C17.9185 29.9419 19.5036 30.8471 21.25 31.1445V45.0007C21.25 45.3323 21.3817 45.6502 21.6161 45.8846C21.8505 46.1191 22.1685 46.2507 22.5 46.2507C22.8315 46.2507 23.1495 46.1191 23.3839 45.8846C23.6183 45.6502 23.75 45.3323 23.75 45.0007V31.1445C25.4964 30.8471 27.0815 29.9419 28.2252 28.589C29.3689 27.236 29.9975 25.5223 30 23.7507C29.9998 23.6822 29.994 23.6137 29.9828 23.5461L28.7328 16.0461Z" fill="white"/>
</g>
<defs>
<clipPath id="clip0_1185_15095">
<rect width="40" height="40" fill="white" transform="translate(10 10)"/>
</clipPath>
</defs>
</svg>
