<svg width="61" height="60" viewBox="0 0 61 60" fill="none" xmlns="http://www.w3.org/2000/svg">
<rect x="0.5" width="60" height="60" rx="30" fill="#7A00E6"/>
<path d="M31.7501 28.7505V37.5005C31.7501 37.8321 31.6184 38.15 31.384 38.3844C31.1495 38.6189 30.8316 38.7505 30.5001 38.7505C30.1686 38.7505 29.8506 38.6189 29.6162 38.3844C29.3818 38.15 29.2501 37.8321 29.2501 37.5005V28.7505C29.2501 28.419 29.3818 28.1011 29.6162 27.8667C29.8506 27.6322 30.1686 27.5005 30.5001 27.5005C30.8316 27.5005 31.1495 27.6322 31.384 27.8667C31.6184 28.1011 31.7501 28.419 31.7501 28.7505ZM37.5063 28.6255L36.6313 37.3755C36.614 37.5394 36.6293 37.705 36.6762 37.8629C36.7232 38.0208 36.8009 38.1679 36.9048 38.2957C37.0088 38.4234 37.137 38.5294 37.282 38.6075C37.4271 38.6855 37.5862 38.7342 37.7501 38.7505C37.7922 38.7529 37.8345 38.7529 37.8766 38.7505C38.1863 38.7502 38.4847 38.6349 38.7142 38.4271C38.9437 38.2192 39.0879 37.9336 39.1188 37.6255L39.9938 28.8755C40.027 28.5457 39.9277 28.2162 39.7179 27.9595C39.5081 27.7028 39.2049 27.5399 38.8751 27.5068C38.5452 27.4736 38.2157 27.5729 37.959 27.7827C37.7023 27.9925 37.5395 28.2957 37.5063 28.6255ZM23.4938 28.6255C23.4607 28.2957 23.2978 27.9925 23.0412 27.7827C22.7845 27.5729 22.4549 27.4736 22.1251 27.5068C21.7952 27.5399 21.492 27.7028 21.2822 27.9595C21.0724 28.2162 20.9732 28.5457 21.0063 28.8755L21.8813 37.6255C21.9124 37.935 22.0577 38.2217 22.2889 38.4297C22.52 38.6377 22.8204 38.7521 23.1313 38.7505C23.1735 38.7529 23.2157 38.7529 23.2579 38.7505C23.4212 38.7341 23.5797 38.6857 23.7243 38.608C23.869 38.5304 23.9969 38.425 24.1008 38.2979C24.2046 38.1708 24.2825 38.0245 24.3298 37.8673C24.3771 37.7101 24.3931 37.5451 24.3766 37.3818L23.4938 28.6255ZM47.9891 23.9162L45.6345 41.5818C45.5523 42.1813 45.2563 42.731 44.8009 43.1295C44.3455 43.5281 43.7615 43.7486 43.1563 43.7505H17.8438C17.2387 43.7486 16.6546 43.5281 16.1993 43.1295C15.7439 42.731 15.4478 42.1813 15.3657 41.5818L13.011 23.9162C12.9874 23.7396 13.0018 23.56 13.0533 23.3895C13.1048 23.2189 13.1921 23.0613 13.3094 22.9273C13.4267 22.7932 13.5714 22.6858 13.7336 22.6122C13.8958 22.5386 14.0719 22.5005 14.2501 22.5005H21.1829L29.5626 12.9271C29.6799 12.7941 29.8241 12.6876 29.9858 12.6146C30.1474 12.5416 30.3227 12.5039 30.5001 12.5039C30.6774 12.5039 30.8527 12.5416 31.0144 12.6146C31.176 12.6876 31.3203 12.7941 31.4376 12.9271L39.8173 22.5005H46.7501C46.9282 22.5005 47.1043 22.5386 47.2666 22.6122C47.4288 22.6858 47.5734 22.7932 47.6908 22.9273C47.8081 23.0613 47.8954 23.2189 47.9469 23.3895C47.9983 23.56 48.0127 23.7396 47.9891 23.9162ZM24.5048 22.5005H36.4954L30.5001 15.649L24.5048 22.5005ZM45.322 25.0005H15.6782L17.8438 41.2505H43.1563L45.322 25.0005Z" fill="white"/>
</svg>
