<svg width="18" height="22" viewBox="0 0 18 22" fill="none" xmlns="http://www.w3.org/2000/svg">
<path d="M17.6208 17.7565C17.6209 18.2491 17.5131 18.7358 17.3051 19.1823C17.097 19.6288 16.7938 20.0244 16.4166 20.3412C16.0394 20.658 15.5974 20.8885 15.1217 21.0163C14.6459 21.1442 14.148 21.1663 13.6628 21.0812C13.1776 20.9961 12.7169 20.8059 12.3131 20.5238C11.9092 20.2417 11.5721 19.8746 11.3252 19.4483C11.0783 19.022 10.9278 18.5469 10.8841 18.0562C10.8404 17.5655 10.9047 17.0713 11.0724 16.6081L6.10361 13.4159C5.62906 13.8814 5.02761 14.1964 4.37472 14.3213C3.72183 14.4463 3.04658 14.3757 2.43367 14.1183C1.82076 13.861 1.29749 13.4284 0.929515 12.8748C0.561537 12.3212 0.365234 11.6713 0.365234 11.0065C0.365234 10.3418 0.561537 9.69183 0.929515 9.13823C1.29749 8.58463 1.82076 8.15202 2.43367 7.89468C3.04658 7.63734 3.72183 7.56672 4.37472 7.69169C5.02761 7.81666 5.62906 8.13165 6.10361 8.59714L11.0724 5.40964C10.7878 4.62781 10.8014 3.76855 11.1103 2.99606C11.4193 2.22357 12.0021 1.592 12.7473 1.22204C13.4925 0.852087 14.3479 0.769677 15.1501 0.990563C15.9522 1.21145 16.6448 1.72014 17.0956 2.41944C17.5464 3.11873 17.7237 3.95961 17.5937 4.78138C17.4636 5.60315 17.0354 6.3482 16.3907 6.87416C15.7461 7.40013 14.9302 7.67013 14.0991 7.63257C13.2679 7.59502 12.4798 7.25254 11.8852 6.67058L6.91642 9.86277C7.18496 10.6048 7.18496 11.4176 6.91642 12.1596L11.8852 15.3518C12.3596 14.8875 12.9603 14.5735 13.6123 14.4489C14.2643 14.3243 14.9386 14.3947 15.5507 14.6514C16.1629 14.908 16.6858 15.3395 17.054 15.8918C17.4222 16.4441 17.6193 17.0927 17.6208 17.7565Z" fill="#7A00E6"/>
</svg>
