<svg width="21" height="20" viewBox="0 0 21 20" fill="none" xmlns="http://www.w3.org/2000/svg">
<path d="M9.5 1C13.366 1 16.5 4.13401 16.5 8C16.5 9.70021 15.8928 11.258 14.8848 12.4707L18.707 16.293C19.0976 16.6835 19.0976 17.3165 18.707 17.707C18.3165 18.0976 17.6835 18.0976 17.293 17.707L13.3994 13.8135C12.285 14.5625 10.9437 15 9.5 15C5.63401 15 2.5 11.866 2.5 8C2.5 4.13401 5.63401 1 9.5 1ZM9.5 2.5C6.46243 2.5 4 4.96243 4 8C4 11.0376 6.46243 13.5 9.5 13.5C12.5376 13.5 15 11.0376 15 8C15 4.96243 12.5376 2.5 9.5 2.5Z" fill="#6C6C6C"/>
</svg>
