<svg width="30" height="30" viewBox="0 0 30 30" fill="none" xmlns="http://www.w3.org/2000/svg">
<rect width="30" height="30" rx="15" fill="#EBEBEB"/>
<path d="M11.2646 25.0103C11.4258 25.0103 11.5747 24.9712 11.7114 24.8931C11.853 24.8198 12.019 24.6953 12.2095 24.5195L14.9414 22.0732H19.6289C20.3711 22.0732 21.0034 21.9341 21.5259 21.6558C22.0483 21.3774 22.4463 20.9771 22.7197 20.4546C22.998 19.9321 23.1372 19.3047 23.1372 18.5723V12.8374C23.1372 12.105 22.998 11.4775 22.7197 10.9551C22.4463 10.4326 22.0483 10.0322 21.5259 9.75391C21.0034 9.4707 20.3711 9.3291 19.6289 9.3291H10.3564C9.61914 9.3291 8.98926 9.4707 8.4668 9.75391C7.94434 10.0322 7.54395 10.4326 7.26562 10.9551C6.99219 11.4775 6.85547 12.105 6.85547 12.8374V18.5723C6.85547 19.3047 6.99463 19.9321 7.27295 20.4546C7.55615 20.9771 7.9541 21.3774 8.4668 21.6558C8.97949 21.9341 9.58252 22.0732 10.2759 22.0732H10.5322V24.1826C10.5322 24.4365 10.5957 24.6367 10.7227 24.7832C10.8545 24.9346 11.0352 25.0103 11.2646 25.0103ZM15.0073 16.895C14.5239 16.895 14.2725 16.6509 14.2529 16.1626L14.1431 12.6982C14.1333 12.4541 14.209 12.2539 14.3701 12.0977C14.5312 11.9414 14.7412 11.8633 15 11.8633C15.2539 11.8633 15.4614 11.9438 15.6226 12.105C15.7886 12.2612 15.8667 12.459 15.8569 12.6982L15.7397 16.1626C15.7202 16.6509 15.4761 16.895 15.0073 16.895ZM15.0073 19.4731C14.7437 19.4731 14.5166 19.3926 14.3262 19.2314C14.1406 19.0654 14.0479 18.853 14.0479 18.5942C14.0479 18.3403 14.1406 18.1304 14.3262 17.9644C14.5117 17.7983 14.7388 17.7153 15.0073 17.7153C15.271 17.7153 15.4956 17.7983 15.6812 17.9644C15.8667 18.1304 15.9595 18.3403 15.9595 18.5942C15.9595 18.853 15.8667 19.0654 15.6812 19.2314C15.4956 19.3926 15.271 19.4731 15.0073 19.4731Z" fill="#7A00E6"/>
</svg>
