<svg width="61" height="60" viewBox="0 0 61 60" fill="none" xmlns="http://www.w3.org/2000/svg">
<rect x="0.25" width="60" height="60" rx="30" fill="white"/>
<g clip-path="url(#clip0_1185_15152)">
<path d="M47.3929 29.7282H13.1071C12.3494 29.7282 11.6227 30.0251 11.0868 30.5536C10.551 31.0821 10.25 31.7988 10.25 32.5462V38.1821C10.25 38.9294 10.551 39.6462 11.0868 40.1746C11.6227 40.7031 12.3494 41 13.1071 41H47.3929C48.1506 41 48.8773 40.7031 49.4132 40.1746C49.949 39.6462 50.25 38.9294 50.25 38.1821V32.5462C50.25 31.7988 49.949 31.0821 49.4132 30.5536C48.8773 30.0251 48.1506 29.7282 47.3929 29.7282ZM47.3929 38.1821H24.5357V32.5462H47.3929V38.1821ZM43.2857 17.7661C44.7143 15.2599 44.6107 13.9425 44.4214 13.3789C44.3386 13.11 44.174 12.8727 43.95 12.6991C43.7777 12.6245 43.6221 12.5171 43.492 12.383C43.3619 12.2489 43.26 12.0907 43.192 11.9177C43.1241 11.7446 43.0915 11.56 43.0961 11.3745C43.1007 11.1889 43.1424 11.0061 43.2189 10.8366C43.2953 10.667 43.405 10.514 43.5416 10.3863C43.6781 10.2587 43.8389 10.1589 44.0147 10.0927C44.1905 10.0265 44.3778 9.99519 44.5659 10.0006C44.754 10.006 44.9391 10.048 45.1107 10.1242C45.591 10.3654 46.0174 10.6992 46.3646 11.1057C46.7118 11.5123 46.9728 11.9835 47.1321 12.4913C47.7321 14.2771 47.2768 16.5156 45.775 19.1469C44.3464 21.6531 44.45 22.9722 44.6393 23.5358C44.7225 23.8041 44.887 24.0407 45.1107 24.2139C45.283 24.2885 45.4387 24.3959 45.5687 24.53C45.6988 24.6641 45.8007 24.8223 45.8687 24.9953C45.9366 25.1684 45.9692 25.353 45.9646 25.5385C45.96 25.724 45.9183 25.9068 45.8418 26.0764C45.7654 26.246 45.6557 26.399 45.5192 26.5267C45.3826 26.6543 45.2218 26.7541 45.046 26.8203C44.8702 26.8865 44.6829 26.9178 44.4948 26.9124C44.3067 26.907 44.1216 26.865 43.95 26.7888C43.4695 26.5479 43.0429 26.2143 42.6957 25.8076C42.3484 25.401 42.0876 24.9297 41.9286 24.4217C41.3339 22.6358 41.7893 20.3938 43.2857 17.7661ZM36.1429 17.7661C37.5714 15.2599 37.4679 13.9425 37.2786 13.3789C37.1957 13.11 37.0312 12.8727 36.8071 12.6991C36.6349 12.6245 36.4792 12.5171 36.3491 12.383C36.219 12.2489 36.1171 12.0907 36.0492 11.9177C35.9812 11.7446 35.9486 11.56 35.9533 11.3745C35.9579 11.1889 35.9996 11.0061 36.076 10.8366C36.1525 10.667 36.2621 10.514 36.3987 10.3863C36.5353 10.2587 36.6961 10.1589 36.8719 10.0927C37.0476 10.0265 37.235 9.99519 37.423 10.0006C37.6111 10.006 37.7963 10.048 37.9679 10.1242C38.4482 10.3654 38.8745 10.6992 39.2217 11.1057C39.5689 11.5123 39.8299 11.9835 39.9893 12.4913C40.5893 14.2771 40.1339 16.5156 38.6321 19.1469C37.2036 21.6531 37.3071 22.9722 37.4964 23.5358C37.5796 23.8041 37.7441 24.0407 37.9679 24.2139C38.1402 24.2885 38.2958 24.3959 38.4259 24.53C38.556 24.6641 38.6579 24.8223 38.7258 24.9953C38.7938 25.1684 38.8264 25.353 38.8217 25.5385C38.8171 25.724 38.7754 25.9068 38.699 26.0764C38.6225 26.246 38.5129 26.399 38.3763 26.5267C38.2397 26.6543 38.0789 26.7541 37.9031 26.8203C37.7274 26.8865 37.54 26.9178 37.352 26.9124C37.1639 26.907 36.9787 26.865 36.8071 26.7888C36.3266 26.5479 35.9001 26.2143 35.5528 25.8076C35.2056 25.401 34.9447 24.9297 34.7857 24.4217C34.1911 22.6358 34.6464 20.3938 36.1429 17.7661Z" fill="black"/>
</g>
<defs>
<clipPath id="clip0_1185_15152">
<rect width="40" height="40" fill="white" transform="translate(10.25 10)"/>
</clipPath>
</defs>
</svg>
