<svg width="61" height="60" viewBox="0 0 61 60" fill="none" xmlns="http://www.w3.org/2000/svg">
<rect x="0.25" width="60" height="60" rx="30" fill="#7A00E6"/>
<g clip-path="url(#clip0_1185_15114)">
<path d="M45 30.0004H15C14.337 30.0004 13.7011 30.2638 13.2322 30.7327C12.7634 31.2015 12.5 31.8374 12.5 32.5004V37.5004C12.5 38.1635 12.7634 38.7993 13.2322 39.2682C13.7011 39.737 14.337 40.0004 15 40.0004H45C45.663 40.0004 46.2989 39.737 46.7678 39.2682C47.2366 38.7993 47.5 38.1635 47.5 37.5004V32.5004C47.5 31.8374 47.2366 31.2015 46.7678 30.7327C46.2989 30.2638 45.663 30.0004 45 30.0004ZM15 32.5004H22.5V37.5004H15V32.5004ZM45 37.5004H25V32.5004H45V37.5004ZM41.4062 19.3879C42.6562 17.1645 42.5656 15.9957 42.4 15.4957C42.3275 15.2572 42.1835 15.0467 41.9875 14.8926C41.8367 14.8264 41.7005 14.7311 41.5867 14.6121C41.4729 14.4932 41.3837 14.3529 41.3243 14.1993C41.2648 14.0458 41.2363 13.882 41.2403 13.7174C41.2444 13.5529 41.2809 13.3907 41.3478 13.2402C41.4147 13.0898 41.5106 12.954 41.6301 12.8408C41.7496 12.7275 41.8903 12.639 42.0441 12.5803C42.1979 12.5215 42.3618 12.4938 42.5264 12.4986C42.691 12.5034 42.853 12.5406 43.0031 12.6082C43.4234 12.8222 43.7965 13.1183 44.1003 13.479C44.4041 13.8397 44.6324 14.2577 44.7719 14.7082C45.2969 16.2926 44.8984 18.2785 43.5844 20.6129C42.3344 22.8364 42.425 24.0067 42.5906 24.5051C42.6631 24.7437 42.8071 24.9542 43.0031 25.1082C43.1539 25.1744 43.2901 25.2697 43.4039 25.3887C43.5177 25.5077 43.6069 25.648 43.6663 25.8015C43.7258 25.955 43.7543 26.1188 43.7503 26.2834C43.7462 26.448 43.7097 26.6102 43.6429 26.7606C43.576 26.9111 43.48 27.0468 43.3605 27.1601C43.241 27.2733 43.1003 27.3619 42.9465 27.4206C42.7927 27.4793 42.6288 27.5071 42.4642 27.5023C42.2996 27.4975 42.1376 27.4602 41.9875 27.3926C41.5672 27.1786 41.1942 26.8825 40.8904 26.5218C40.5866 26.1611 40.3582 25.7431 40.2188 25.2926C39.6984 23.7082 40.0969 21.7192 41.4062 19.3879ZM35.1562 19.3879C36.4062 17.1645 36.3156 15.9957 36.15 15.4957C36.0775 15.2572 35.9335 15.0467 35.7375 14.8926C35.5867 14.8264 35.4505 14.7311 35.3367 14.6121C35.2229 14.4932 35.1337 14.3529 35.0743 14.1993C35.0148 14.0458 34.9863 13.882 34.9903 13.7174C34.9944 13.5529 35.0309 13.3907 35.0978 13.2402C35.1647 13.0898 35.2606 12.954 35.3801 12.8408C35.4996 12.7275 35.6403 12.639 35.7941 12.5803C35.9479 12.5215 36.1118 12.4938 36.2764 12.4986C36.441 12.5034 36.603 12.5406 36.7531 12.6082C37.1734 12.8222 37.5465 13.1183 37.8503 13.479C38.1541 13.8397 38.3824 14.2577 38.5219 14.7082C39.0469 16.2926 38.6484 18.2785 37.3344 20.6129C36.0844 22.8364 36.175 24.0067 36.3406 24.5051C36.4131 24.7437 36.5571 24.9542 36.7531 25.1082C36.9039 25.1744 37.0401 25.2697 37.1539 25.3887C37.2677 25.5077 37.3569 25.648 37.4163 25.8015C37.4758 25.955 37.5043 26.1188 37.5003 26.2834C37.4962 26.448 37.4597 26.6102 37.3929 26.7606C37.326 26.9111 37.23 27.0468 37.1105 27.1601C36.991 27.2733 36.8503 27.3619 36.6965 27.4206C36.5427 27.4793 36.3788 27.5071 36.2142 27.5023C36.0496 27.4975 35.8876 27.4602 35.7375 27.3926C35.3172 27.1786 34.9442 26.8825 34.6404 26.5218C34.3366 26.1611 34.1082 25.7431 33.9688 25.2926C33.4484 23.7082 33.8469 21.7192 35.1562 19.3879Z" fill="white"/>
</g>
<defs>
<clipPath id="clip0_1185_15114">
<rect width="40" height="40" fill="white" transform="translate(10.25 10)"/>
</clipPath>
</defs>
</svg>
