<svg width="60" height="60" viewBox="0 0 60 60" fill="none" xmlns="http://www.w3.org/2000/svg">
<path d="M30 1C46.0163 1 59 13.9837 59 30C59 46.0163 46.0163 59 30 59C13.9837 59 1 46.0163 1 30C1 13.9837 13.9837 1 30 1Z" fill="white"/>
<path d="M30 1C46.0163 1 59 13.9837 59 30C59 46.0163 46.0163 59 30 59C13.9837 59 1 46.0163 1 30C1 13.9837 13.9837 1 30 1Z" stroke="#7A00E6" stroke-width="2"/>
<path d="M48.7002 47.4004C49.4179 47.4004 50 47.9827 50 48.7021C49.9999 49.4215 49.4179 49.9999 48.7002 50H11.2998C10.5821 50 10.0001 49.4182 10 48.7021C10 47.9861 10.5821 47.4004 11.2998 47.4004H48.7002ZM34.3496 22.9004C35.0006 22.9004 35.7011 23.2481 35.7012 23.9482V32.249C35.7012 35.4487 33.8997 37 31.2012 37C28.2013 36.9999 26.5508 35.4986 26.5508 32.1982V23.9482C26.5508 23.2478 27.2007 22.9005 27.9502 22.9004C28.5991 22.9004 29.3505 23.2481 29.3506 23.9482V31.8984C29.3506 33.5494 29.903 34.5498 31.2012 34.5498C32.4992 34.5497 33 33.4998 33 31.8984V23.9482C33 23.2477 33.6512 22.9004 34.3496 22.9004ZM41.2002 22.7988C42.0485 22.7989 42.9003 22.9999 43.5 23.2998C44.0997 23.5996 44.4502 23.8996 44.2002 24.751C44.0007 25.499 43.5505 25.9491 42.8486 25.5996C42.3989 25.4001 41.7991 25.1504 41.1504 25.1504C40.1997 25.1504 39.5509 25.7002 39.5508 26.501C39.5508 27.1994 40.1011 27.7502 40.75 28.0996L41.8506 28.6992C43.2971 29.5002 44.4512 30.7013 44.4512 32.751C44.4512 35.349 42.4506 36.9998 40.001 37C39.0505 37 38.0002 36.7501 37.4004 36.4502C36.7495 36.1503 36.3493 35.7985 36.5996 34.9502C36.8499 34.1516 37.2505 33.6996 38 34.0488C38.4498 34.25 39.2999 34.5507 40 34.5508C40.8996 34.5508 41.7998 34.1003 41.7998 33.1494C41.7997 32.3998 41.3494 31.8495 40.6494 31.4492L39.501 30.7998C37.8997 29.8985 36.8994 28.7995 36.8994 26.8486C36.8996 24.3494 38.8508 22.7988 41.2002 22.7988ZM17.2998 22.9502H21.0488C22.9997 22.9502 25.002 24.0502 25.002 26.3506C25.0018 28.0523 23.8007 29.0006 22.8008 29.5V29.5518C23.6509 29.7017 25.25 30.5533 25.25 32.8516C25.2498 35.7036 23.2505 36.8506 21.1006 36.8506H17.5508C16.9002 36.8506 16.2021 36.5011 16.2021 35.7988V24.0996C16.2021 23.5016 16.5998 22.9503 17.2998 22.9502ZM19.0498 34.5518H20.251C21.8506 34.5518 22.6024 33.9009 22.6025 32.5518C22.6025 31.0028 21.2493 30.6523 20.251 30.6523H19.0498V34.5518ZM18.8994 28.75H19.9512C21.0994 28.75 22.2012 28.3475 22.2012 26.998C22.201 25.6488 21.1506 25.249 19.9512 25.249H18.8994V28.75ZM48.7002 10C49.4179 10.0001 50 10.5823 50 11.3018C49.9999 12.0211 49.4179 12.5996 48.7002 12.5996H11.2998C10.5821 12.5996 10.0001 12.0178 10 11.3018C10 10.5857 10.5821 10.0001 11.2998 10H48.7002Z" fill="#7A00E6"/>
</svg>
