<svg width="60" height="60" viewBox="0 0 60 60" fill="none" xmlns="http://www.w3.org/2000/svg">
<path d="M30 1C46.0163 1 59 13.9837 59 30C59 46.0163 46.0163 59 30 59C13.9837 59 1 46.0163 1 30C1 13.9837 13.9837 1 30 1Z" fill="white"/>
<path d="M30 1C46.0163 1 59 13.9837 59 30C59 46.0163 46.0163 59 30 59C13.9837 59 1 46.0163 1 30C1 13.9837 13.9837 1 30 1Z" stroke="#7A00E6" stroke-width="2"/>
<path d="M42.5 22.5H15C14.6685 22.5 14.3505 22.6317 14.1161 22.8661C13.8817 23.1005 13.75 23.4185 13.75 23.75V31.25C13.7537 33.3781 14.2088 35.4812 15.0853 37.4205C15.9617 39.3597 17.2395 41.091 18.8344 42.5H15C14.6685 42.5 14.3505 42.6317 14.1161 42.8661C13.8817 43.1005 13.75 43.4185 13.75 43.75C13.75 44.0815 13.8817 44.3995 14.1161 44.6339C14.3505 44.8683 14.6685 45 15 45H42.5C42.8315 45 43.1495 44.8683 43.3839 44.6339C43.6183 44.3995 43.75 44.0815 43.75 43.75C43.75 43.4185 43.6183 43.1005 43.3839 42.8661C43.1495 42.6317 42.8315 42.5 42.5 42.5H38.6656C40.58 40.8033 42.0317 38.6478 42.8844 36.2359C44.472 36.1381 45.9627 35.4386 47.0525 34.2799C48.1424 33.1213 48.7494 31.5907 48.75 30V28.75C48.75 27.0924 48.0915 25.5027 46.9194 24.3306C45.7473 23.1585 44.1576 22.5 42.5 22.5ZM46.25 30C46.2494 30.8087 45.9875 31.5956 45.5031 32.2432C45.0188 32.8909 44.3381 33.3646 43.5625 33.5938C43.6864 32.8186 43.7491 32.035 43.75 31.25V25.2156C44.4809 25.4741 45.1138 25.9527 45.5615 26.5856C46.0092 27.2186 46.2498 27.9747 46.25 28.75V30ZM27.5 18.75V13.75C27.5 13.4185 27.6317 13.1005 27.8661 12.8661C28.1005 12.6317 28.4185 12.5 28.75 12.5C29.0815 12.5 29.3995 12.6317 29.6339 12.8661C29.8683 13.1005 30 13.4185 30 13.75V18.75C30 19.0815 29.8683 19.3995 29.6339 19.6339C29.3995 19.8683 29.0815 20 28.75 20C28.4185 20 28.1005 19.8683 27.8661 19.6339C27.6317 19.3995 27.5 19.0815 27.5 18.75ZM32.5 18.75V13.75C32.5 13.4185 32.6317 13.1005 32.8661 12.8661C33.1005 12.6317 33.4185 12.5 33.75 12.5C34.0815 12.5 34.3995 12.6317 34.6339 12.8661C34.8683 13.1005 35 13.4185 35 13.75V18.75C35 19.0815 34.8683 19.3995 34.6339 19.6339C34.3995 19.8683 34.0815 20 33.75 20C33.4185 20 33.1005 19.8683 32.8661 19.6339C32.6317 19.3995 32.5 19.0815 32.5 18.75ZM22.5 18.75V13.75C22.5 13.4185 22.6317 13.1005 22.8661 12.8661C23.1005 12.6317 23.4185 12.5 23.75 12.5C24.0815 12.5 24.3995 12.6317 24.6339 12.8661C24.8683 13.1005 25 13.4185 25 13.75V18.75C25 19.0815 24.8683 19.3995 24.6339 19.6339C24.3995 19.8683 24.0815 20 23.75 20C23.4185 20 23.1005 19.8683 22.8661 19.6339C22.6317 19.3995 22.5 19.0815 22.5 18.75Z" fill="#7A00E6"/>
</svg>
