<svg width="60" height="60" viewBox="0 0 60 60" fill="none" xmlns="http://www.w3.org/2000/svg">
<path d="M30 1C46.0163 1 59 13.9837 59 30C59 46.0163 46.0163 59 30 59C13.9837 59 1 46.0163 1 30C1 13.9837 13.9837 1 30 1Z" fill="white"/>
<path d="M30 1C46.0163 1 59 13.9837 59 30C59 46.0163 46.0163 59 30 59C13.9837 59 1 46.0163 1 30C1 13.9837 13.9837 1 30 1Z" stroke="#7A00E6" stroke-width="2"/>
<path d="M47.1876 22.9271C47.0706 22.7935 46.9265 22.6863 46.7648 22.6128C46.6032 22.5392 46.4277 22.501 46.2501 22.5005H39.3173L30.9376 12.9271C30.8203 12.7941 30.676 12.6876 30.5144 12.6146C30.3527 12.5416 30.1774 12.5039 30.0001 12.5039C29.8227 12.5039 29.6474 12.5416 29.4858 12.6146C29.3241 12.6876 29.1799 12.7941 29.0626 12.9271L20.6829 22.5005H13.7501C13.5719 22.5005 13.3958 22.5386 13.2336 22.6122C13.0714 22.6858 12.9267 22.7932 12.8094 22.9273C12.6921 23.0613 12.6048 23.2189 12.5533 23.3895C12.5018 23.56 12.4874 23.7396 12.511 23.9162L14.8657 41.5818C14.9478 42.1813 15.2439 42.731 15.6993 43.1295C16.1546 43.5281 16.7387 43.7486 17.3438 43.7505H42.6563C43.2615 43.7486 43.8455 43.5281 44.3009 43.1295C44.7563 42.731 45.0523 42.1813 45.1345 41.5818L47.4891 23.9162C47.5123 23.7393 47.4974 23.5596 47.4454 23.389C47.3934 23.2184 47.3055 23.0609 47.1876 22.9271ZM22.7501 38.7505C22.7079 38.7529 22.6657 38.7529 22.6235 38.7505C22.3126 38.7521 22.0122 38.6377 21.7811 38.4297C21.5499 38.2217 21.4046 37.935 21.3735 37.6255L20.4985 28.8755C20.4654 28.5457 20.5646 28.2162 20.7744 27.9595C20.9842 27.7028 21.2874 27.5399 21.6173 27.5068C21.9471 27.4736 22.2767 27.5729 22.5333 27.7827C22.79 27.9925 22.9529 28.2957 22.986 28.6255L23.861 37.3755C23.896 37.7052 23.7987 38.0353 23.5903 38.2931C23.382 38.551 23.0797 38.7155 22.7501 38.7505ZM31.2501 37.5005C31.2501 37.8321 31.1184 38.15 30.884 38.3844C30.6495 38.6189 30.3316 38.7505 30.0001 38.7505C29.6686 38.7505 29.3506 38.6189 29.1162 38.3844C28.8818 38.15 28.7501 37.8321 28.7501 37.5005V28.7505C28.7501 28.419 28.8818 28.1011 29.1162 27.8667C29.3506 27.6322 29.6686 27.5005 30.0001 27.5005C30.3316 27.5005 30.6495 27.6322 30.884 27.8667C31.1184 28.1011 31.2501 28.419 31.2501 28.7505V37.5005ZM24.0048 22.5005L30.0001 15.649L35.9954 22.5005H24.0048ZM39.4938 28.8755L38.6188 37.6255C38.5879 37.9336 38.4437 38.2192 38.2142 38.4271C37.9847 38.6349 37.6863 38.7502 37.3766 38.7505C37.3345 38.7529 37.2922 38.7529 37.2501 38.7505C37.0868 38.7341 36.9283 38.6857 36.7836 38.608C36.639 38.5304 36.5111 38.425 36.4072 38.2979C36.3033 38.1708 36.2255 38.0245 36.1782 37.8673C36.1308 37.7101 36.1149 37.5451 36.1313 37.3818L37.0063 28.6318C37.0395 28.3019 37.2023 27.9987 37.459 27.7889C37.7157 27.5791 38.0452 27.4799 38.3751 27.513C38.7049 27.5462 39.0081 27.709 39.2179 27.9657C39.4277 28.2224 39.527 28.5519 39.4938 28.8818V28.8755Z" fill="#7A00E6"/>
</svg>
