<svg width="60" height="60" viewBox="0 0 60 60" fill="none" xmlns="http://www.w3.org/2000/svg">
<path d="M30 1C46.0163 1 59 13.9837 59 30C59 46.0163 46.0163 59 30 59C13.9837 59 1 46.0163 1 30C1 13.9837 13.9837 1 30 1Z" fill="white"/>
<path d="M30 1C46.0163 1 59 13.9837 59 30C59 46.0163 46.0163 59 30 59C13.9837 59 1 46.0163 1 30C1 13.9837 13.9837 1 30 1Z" stroke="#7A00E6" stroke-width="2"/>
<path d="M47.1429 29.7282H12.8571C12.0994 29.7282 11.3727 30.0251 10.8368 30.5536C10.301 31.0821 10 31.7988 10 32.5462V38.1821C10 38.9294 10.301 39.6462 10.8368 40.1746C11.3727 40.7031 12.0994 41 12.8571 41H47.1429C47.9006 41 48.6273 40.7031 49.1632 40.1746C49.699 39.6462 50 38.9294 50 38.1821V32.5462C50 31.7988 49.699 31.0821 49.1632 30.5536C48.6273 30.0251 47.9006 29.7282 47.1429 29.7282ZM47.1429 38.1821H24.2857V32.5462H47.1429V38.1821ZM43.0357 17.7661C44.4643 15.2599 44.3607 13.9425 44.1714 13.3789C44.0886 13.11 43.924 12.8727 43.7 12.6991C43.5277 12.6245 43.3721 12.5171 43.242 12.383C43.1119 12.2489 43.01 12.0907 42.942 11.9177C42.8741 11.7446 42.8415 11.56 42.8461 11.3745C42.8507 11.1889 42.8924 11.0061 42.9689 10.8366C43.0453 10.667 43.155 10.514 43.2916 10.3863C43.4281 10.2587 43.5889 10.1589 43.7647 10.0927C43.9405 10.0265 44.1278 9.99519 44.3159 10.0006C44.504 10.006 44.6891 10.048 44.8607 10.1242C45.341 10.3654 45.7674 10.6992 46.1146 11.1057C46.4618 11.5123 46.7228 11.9835 46.8821 12.4913C47.4821 14.2771 47.0268 16.5156 45.525 19.1469C44.0964 21.6531 44.2 22.9722 44.3893 23.5358C44.4725 23.8041 44.637 24.0407 44.8607 24.2139C45.033 24.2885 45.1887 24.3959 45.3187 24.53C45.4488 24.6641 45.5507 24.8223 45.6187 24.9953C45.6866 25.1684 45.7192 25.353 45.7146 25.5385C45.71 25.724 45.6683 25.9068 45.5918 26.0764C45.5154 26.246 45.4057 26.399 45.2692 26.5267C45.1326 26.6543 44.9718 26.7541 44.796 26.8203C44.6202 26.8865 44.4329 26.9178 44.2448 26.9124C44.0567 26.907 43.8716 26.865 43.7 26.7888C43.2195 26.5479 42.7929 26.2143 42.4457 25.8076C42.0984 25.401 41.8376 24.9297 41.6786 24.4217C41.0839 22.6358 41.5393 20.3938 43.0357 17.7661ZM35.8929 17.7661C37.3214 15.2599 37.2179 13.9425 37.0286 13.3789C36.9457 13.11 36.7812 12.8727 36.5571 12.6991C36.3849 12.6245 36.2292 12.5171 36.0991 12.383C35.969 12.2489 35.8671 12.0907 35.7992 11.9177C35.7312 11.7446 35.6986 11.56 35.7033 11.3745C35.7079 11.1889 35.7496 11.0061 35.826 10.8366C35.9025 10.667 36.0121 10.514 36.1487 10.3863C36.2853 10.2587 36.4461 10.1589 36.6219 10.0927C36.7976 10.0265 36.985 9.99519 37.173 10.0006C37.3611 10.006 37.5463 10.048 37.7179 10.1242C38.1982 10.3654 38.6245 10.6992 38.9717 11.1057C39.3189 11.5123 39.5799 11.9835 39.7393 12.4913C40.3393 14.2771 39.8839 16.5156 38.3821 19.1469C36.9536 21.6531 37.0571 22.9722 37.2464 23.5358C37.3296 23.8041 37.4941 24.0407 37.7179 24.2139C37.8902 24.2885 38.0458 24.3959 38.1759 24.53C38.306 24.6641 38.4079 24.8223 38.4758 24.9953C38.5438 25.1684 38.5764 25.353 38.5717 25.5385C38.5671 25.724 38.5254 25.9068 38.449 26.0764C38.3725 26.246 38.2629 26.399 38.1263 26.5267C37.9897 26.6543 37.8289 26.7541 37.6531 26.8203C37.4774 26.8865 37.29 26.9178 37.102 26.9124C36.9139 26.907 36.7287 26.865 36.5571 26.7888C36.0766 26.5479 35.6501 26.2143 35.3028 25.8076C34.9556 25.401 34.6947 24.9297 34.5357 24.4217C33.9411 22.6358 34.3964 20.3938 35.8929 17.7661Z" fill="#7A00E6"/>
</svg>
