<svg width="30" height="30" viewBox="0 0 30 30" fill="none" xmlns="http://www.w3.org/2000/svg">
<rect width="30" height="30" rx="15" fill="#E7E7E7"/>
<path d="M20.7356 9.42112C21.1259 9.81166 21.126 10.4449 20.7356 10.8353L16.4142 15.1567L20.5781 19.3206C20.9687 19.7111 20.9687 20.3443 20.5781 20.7348C20.1876 21.1252 19.5544 21.1253 19.1639 20.7348L15 16.5709L10.8361 20.7348C10.4456 21.1253 9.8124 21.1252 9.42187 20.7348C9.03134 20.3443 9.03134 19.7111 9.42187 19.3206L13.5858 15.1567L9.26442 10.8353C8.87395 10.4449 8.87405 9.81166 9.26442 9.42112C9.65495 9.0306 10.2881 9.0306 10.6786 9.42112L15 13.7425L19.3214 9.42112C19.7119 9.0306 20.3451 9.0306 20.7356 9.42112Z" fill="#6C6C6C"/>
</svg>
