<svg width="61" height="60" viewBox="0 0 61 60" fill="none" xmlns="http://www.w3.org/2000/svg">
<rect x="0.5" width="60" height="60" rx="30" fill="white"/>
<path d="M47.6876 22.9271C47.5706 22.7935 47.4265 22.6863 47.2648 22.6128C47.1032 22.5392 46.9277 22.501 46.7501 22.5005H39.8173L31.4376 12.9271C31.3203 12.7941 31.176 12.6876 31.0144 12.6146C30.8527 12.5416 30.6774 12.5039 30.5001 12.5039C30.3227 12.5039 30.1474 12.5416 29.9858 12.6146C29.8241 12.6876 29.6799 12.7941 29.5626 12.9271L21.1829 22.5005H14.2501C14.0719 22.5005 13.8958 22.5386 13.7336 22.6122C13.5714 22.6858 13.4267 22.7932 13.3094 22.9273C13.1921 23.0613 13.1048 23.2189 13.0533 23.3895C13.0018 23.56 12.9874 23.7396 13.011 23.9162L15.3657 41.5818C15.4478 42.1813 15.7439 42.731 16.1993 43.1295C16.6546 43.5281 17.2387 43.7486 17.8438 43.7505H43.1563C43.7615 43.7486 44.3455 43.5281 44.8009 43.1295C45.2563 42.731 45.5523 42.1813 45.6345 41.5818L47.9891 23.9162C48.0123 23.7393 47.9974 23.5596 47.9454 23.389C47.8934 23.2184 47.8055 23.0609 47.6876 22.9271ZM23.2501 38.7505C23.2079 38.7529 23.1657 38.7529 23.1235 38.7505C22.8126 38.7521 22.5122 38.6377 22.2811 38.4297C22.0499 38.2217 21.9046 37.935 21.8735 37.6255L20.9985 28.8755C20.9654 28.5457 21.0646 28.2162 21.2744 27.9595C21.4842 27.7028 21.7874 27.5399 22.1173 27.5068C22.4471 27.4736 22.7767 27.5729 23.0333 27.7827C23.29 27.9925 23.4529 28.2957 23.486 28.6255L24.361 37.3755C24.396 37.7052 24.2987 38.0353 24.0903 38.2931C23.882 38.551 23.5797 38.7155 23.2501 38.7505ZM31.7501 37.5005C31.7501 37.8321 31.6184 38.15 31.384 38.3844C31.1495 38.6189 30.8316 38.7505 30.5001 38.7505C30.1686 38.7505 29.8506 38.6189 29.6162 38.3844C29.3818 38.15 29.2501 37.8321 29.2501 37.5005V28.7505C29.2501 28.419 29.3818 28.1011 29.6162 27.8667C29.8506 27.6322 30.1686 27.5005 30.5001 27.5005C30.8316 27.5005 31.1495 27.6322 31.384 27.8667C31.6184 28.1011 31.7501 28.419 31.7501 28.7505V37.5005ZM24.5048 22.5005L30.5001 15.649L36.4954 22.5005H24.5048ZM39.9938 28.8755L39.1188 37.6255C39.0879 37.9336 38.9437 38.2192 38.7142 38.4271C38.4847 38.6349 38.1863 38.7502 37.8766 38.7505C37.8345 38.7529 37.7922 38.7529 37.7501 38.7505C37.5868 38.7341 37.4283 38.6857 37.2836 38.608C37.139 38.5304 37.0111 38.425 36.9072 38.2979C36.8033 38.1708 36.7255 38.0245 36.6782 37.8673C36.6308 37.7101 36.6149 37.5451 36.6313 37.3818L37.5063 28.6318C37.5395 28.3019 37.7023 27.9987 37.959 27.7889C38.2157 27.5791 38.5452 27.4799 38.8751 27.513C39.2049 27.5462 39.5081 27.709 39.7179 27.9657C39.9277 28.2224 40.027 28.5519 39.9938 28.8818V28.8755Z" fill="black"/>
</svg>
