<svg width="141" height="61" viewBox="0 0 141 61" fill="none" xmlns="http://www.w3.org/2000/svg">
<path d="M6.43223 47.6982C2.75059 47.6982 0.592384 45.5083 0.592384 41.6362V6.56543C0.592384 2.69336 2.75059 0.503418 6.43223 0.503418C10.1139 0.503418 12.2403 2.69336 12.2403 6.56543V41.6362C12.2403 45.5083 10.1139 47.6982 6.43223 47.6982ZM22.1287 47.73C18.8279 47.73 16.4793 45.8257 16.4793 41.8901V17.3564C16.4793 13.8018 18.4788 11.707 21.9383 11.707C25.3978 11.707 27.6512 13.8018 27.6512 17.3882V18.6895H27.8733C29.6824 14.1191 33.0467 11.7705 38.347 11.7705C46.0594 11.7705 50.344 16.5947 50.344 24.8149V41.8901C50.344 45.8257 48.0271 47.73 44.7264 47.73C41.4256 47.73 39.1087 45.8257 39.1087 41.8901V27.2271C39.1087 23.2915 37.2361 20.9429 33.5545 20.9429C29.9681 20.9429 27.7464 23.6406 27.7464 27.4492V41.8901C27.7464 45.8257 25.3978 47.73 22.1287 47.73ZM69.8809 60.0127C62.1685 59.981 56.7095 57.1245 54.583 53.5381C54.0435 52.5859 53.853 51.6338 53.853 50.7134C53.853 48.4917 55.5669 46.7778 58.2964 46.7778C59.6611 46.7778 60.8672 47.1904 61.978 48.1426C64.3584 50.1421 66.7705 51.4751 69.7222 51.5068C74.356 51.5068 77.0537 49.0312 77.0537 45.1274V39.605H76.8315C75.4668 43.2549 71.4678 45.7622 66.3896 45.7622C57.8838 45.7622 52.647 39.3828 52.647 28.9092C52.647 18.0864 57.7251 11.9292 66.5483 11.9292C71.563 11.9292 75.3398 14.6587 76.895 18.5308H77.1172V17.3564C77.1172 13.4844 79.561 11.707 82.7983 11.707C86.0356 11.707 88.3525 13.4844 88.3525 17.3564V45.3179C88.3525 54.6807 81.6875 60.0127 69.8809 60.0127ZM70.6426 37.7959C74.6733 37.7959 77.1489 34.6855 77.1489 29.0996C77.1489 23.5771 74.6416 20.1177 70.6426 20.1177C66.6118 20.1177 64.168 23.5454 64.168 29.0996C64.168 34.6855 66.5801 37.7959 70.6426 37.7959ZM97.7014 47.73C94.4006 47.73 92.052 45.8257 92.052 41.8901V6.31152C92.052 2.37598 94.4006 0.47168 97.7014 0.47168C100.97 0.47168 103.319 2.37598 103.319 6.31152V41.8901C103.319 45.8257 100.97 47.73 97.7014 47.73ZM123.586 47.8252C112.509 47.8252 105.939 41.1284 105.939 29.8931C105.939 18.6895 112.604 11.6118 123.142 11.6118C133.425 11.6118 140.185 18.4038 140.185 27.7349C140.185 30.5913 138.566 32.1782 135.646 32.1782H116.857V32.813C116.857 37.0024 119.619 39.8589 123.681 39.8589C126.76 39.8589 128.886 38.875 131.393 36.3359C132.568 35.2251 133.488 34.8442 134.885 34.8442C137.17 34.8442 139.106 36.3042 139.106 38.7798C139.106 39.6367 138.852 40.4937 138.344 41.3188C136.059 45.3813 130.473 47.8252 123.586 47.8252ZM117.016 25.7671H129.584C129.394 22.022 126.887 19.6099 123.364 19.6099C119.872 19.6099 117.302 22.1489 117.016 25.7671Z" fill="white"/>
</svg>
