<svg width="375" height="266" viewBox="0 0 375 266" fill="none" xmlns="http://www.w3.org/2000/svg">
<g clip-path="url(#clip0_730_2872)">
<path fill-rule="evenodd" clip-rule="evenodd" d="M293.046 51.4291C293.118 31.2455 282.213 19.4017 276.494 29.4936C265.852 10.4369 253.773 11.8556 251.655 20.3999C233.678 12.5188 223.799 16.0231 227.219 28.3071C207.907 30.8543 203.273 38.4925 208.692 48.0016C194.96 58.7307 195.992 66.1795 201.8 71.3799C193.449 81.2686 198.095 83.5318 200.486 85.7021C195.319 92.9859 195.584 97.9633 201.493 100.12C199.424 111.041 203.086 114.997 210.807 114.193C212.963 120.29 216.976 123.691 228.17 119.396C229.255 129.883 235.546 130.88 245.051 126.011C251.032 133.08 256.319 135.289 260.361 128.777C268.724 132.575 272.159 132.805 272.221 124.689C277.997 129.369 282.541 130.037 283.4 120.308C291.051 123.44 296.613 116.713 292.495 100.41C303.39 100.129 304.948 91.5399 299.177 74.8336C307.969 69.9866 303.737 57.9939 293.046 51.43L293.046 51.4291Z" fill="#29263B"/>
<path fill-rule="evenodd" clip-rule="evenodd" d="M275.919 92.3868C290.35 93.6952 282.584 114.165 268.888 103.506L275.919 92.3868Z" fill="#915839"/>
<path fill-rule="evenodd" clip-rule="evenodd" d="M223.787 77.5742C211.283 70.0579 206.064 91.3622 223.243 90.8185L223.787 77.5742Z" fill="#915839"/>
<path fill-rule="evenodd" clip-rule="evenodd" d="M231.424 134.38C253.486 137.449 271.722 125.815 280.286 133.296C293.35 144.71 281.775 170.006 266.735 189.823C255.507 204.613 252.01 226.526 250.843 234.826C229.946 242.286 208.454 238.219 189.275 225.354C193.752 200.395 184.42 189.949 188.274 172.423C184.686 173.743 174.438 178.216 171.217 174.62C171.217 174.62 174.116 127.444 191.13 122.65C202.125 119.553 209.111 131.278 231.425 134.381L231.424 134.38Z" fill="#C186EA"/>
<path fill-rule="evenodd" clip-rule="evenodd" d="M283.112 82.0978C283.112 82.0978 272.494 104.147 262.965 111.308C255.338 117.04 249.73 118.623 245.561 120.69C240.982 122.959 240.5 131.821 241.562 133.156C242.956 134.91 249.258 134.892 254.164 133.853C246.528 147.875 237.098 158.681 225.374 165.371C219.408 157.768 215.776 146.098 212.288 129.656C212.288 129.656 219.987 131.274 223.402 129.047C226.636 126.937 228.637 120.476 227.283 113.659C225.929 106.842 223.152 104.902 222.129 96.0541C221.172 87.7592 223.893 55.4982 223.893 55.4982C225.166 59.8698 230.038 59.4291 241.649 49.9748C238.945 56.5752 243.756 57.2779 255.742 52.3549C255.622 58.8332 259.452 59.8521 268.218 54.0409C269.356 67.2581 271.925 73.0992 276.874 66.6754C276.802 75.4179 278.234 81.6437 283.116 82.0981L283.112 82.0978Z" fill="#915839"/>
<path fill-rule="evenodd" clip-rule="evenodd" d="M227.279 113.659C227.969 116.986 227.833 120.438 226.884 123.697C233.106 120.837 237.821 122.743 241.19 128.904C241.529 125.834 242.793 122.062 245.558 120.69C237.078 123.388 231.108 120.784 227.279 113.659Z" fill="#7B3711"/>
<path fill-rule="evenodd" clip-rule="evenodd" d="M264.467 138.932C265.795 134.828 268.903 119.053 272.045 112.732C275.188 106.412 267.621 104.423 264.173 111.855C260.819 119.086 259.868 127.32 259.868 127.32C259.868 127.32 255.647 120.538 252.314 120.186C248.982 119.834 245.996 123.699 245.996 123.699C240.127 122.259 237.557 124.47 237.783 129.78C231.522 130.204 228.814 144.649 236.462 145.671C232.897 149.469 232.161 152.633 235.118 155.237L228.061 179.535C215.674 183.904 201.817 186.292 192.845 185.583C188.002 182.275 187.741 177.459 188.447 172.095C183.686 171.152 176.922 170.667 171.74 174.459C171.74 174.459 168.073 198.743 176.311 206.736C184.549 214.729 225.594 197.066 225.594 197.066C225.594 197.066 226.475 213.068 233.318 214.84C246.609 218.285 266.856 189.51 266.856 189.51C265.784 187.587 264.26 185.97 262.423 184.808C262.423 184.808 263.644 171.773 260.275 168.961C256.906 166.149 246.727 168.796 246.727 168.796C246.727 168.796 248.252 159.433 248.904 157.341C249.555 155.249 263.489 141.957 264.469 138.929L264.467 138.932Z" fill="#915839"/>
<path d="M237.64 130.119C237.531 130.111 237.428 130.064 237.349 129.985C237.271 129.907 237.221 129.803 237.21 129.691C236.984 127.492 237.661 125.515 239.065 124.269C240.201 123.261 242.343 122.265 246.103 123.253C250.031 124.282 253.319 127.544 254.93 129.399C255.01 129.494 255.05 129.618 255.042 129.744C255.033 129.869 254.978 129.986 254.886 130.07C254.795 130.153 254.675 130.197 254.553 130.191C254.431 130.185 254.315 130.13 254.232 130.038C252.692 128.267 249.559 125.152 245.872 124.185C243.206 123.485 241.063 123.766 239.677 124.997C238.507 126.035 237.947 127.71 238.14 129.591C238.153 129.718 238.117 129.845 238.039 129.944C237.96 130.043 237.847 130.106 237.724 130.119C237.696 130.122 237.668 130.122 237.64 130.119Z" fill="#29263B"/>
<path d="M236.191 146.076C236.139 146.072 236.088 146.06 236.041 146.039C233.749 145.045 232.231 143.623 231.528 141.813C230.354 138.786 231.762 135.481 232.439 133.892L232.471 133.816C233.903 130.455 236.587 129.465 237.5 129.367C240.198 129.081 242.996 130.472 246.306 133.749C246.395 133.837 246.447 133.958 246.449 134.086C246.451 134.213 246.404 134.336 246.318 134.428C246.232 134.52 246.114 134.573 245.99 134.575C245.866 134.578 245.746 134.529 245.656 134.441C242.603 131.417 239.966 130.067 237.597 130.322C236.886 130.399 234.575 131.275 233.329 134.201L233.296 134.277C232.67 135.746 231.367 138.803 232.399 141.457C233.005 143.019 234.354 144.264 236.406 145.155C236.508 145.199 236.592 145.279 236.642 145.38C236.692 145.482 236.705 145.598 236.68 145.709C236.654 145.819 236.591 145.917 236.501 145.984C236.412 146.051 236.303 146.084 236.192 146.076L236.191 146.076Z" fill="#29263B"/>
<path d="M233.986 159.384C233.916 159.379 233.847 159.358 233.786 159.322C233.724 159.286 233.672 159.236 233.632 159.177C233.592 159.117 233.566 159.048 233.555 158.976C233.545 158.905 233.55 158.831 233.572 158.762C233.577 158.744 234.099 157.023 234.554 155.228C231.181 151.015 234.912 146.716 236.151 145.289C236.851 144.483 237.635 143.682 238.393 142.907C239.16 142.123 239.949 141.316 240.655 140.5L240.295 140.281C238.135 138.965 236.094 137.723 235.935 135.654C235.928 135.529 235.97 135.407 236.051 135.313C236.131 135.219 236.244 135.161 236.365 135.151C236.487 135.142 236.607 135.181 236.701 135.261C236.795 135.341 236.854 135.455 236.867 135.579C236.988 137.151 238.742 138.219 240.773 139.455C241.051 139.624 241.334 139.796 241.616 139.973C241.674 140.009 241.724 140.057 241.761 140.114C241.799 140.172 241.825 140.237 241.835 140.306C241.846 140.374 241.843 140.444 241.825 140.511C241.807 140.578 241.775 140.64 241.731 140.693C240.914 141.686 239.968 142.653 239.055 143.588C238.307 144.353 237.533 145.144 236.851 145.929C234.904 148.172 232.638 151.531 235.421 154.79C235.472 154.848 235.507 154.919 235.525 154.995C235.542 155.071 235.542 155.15 235.523 155.226C235.049 157.129 234.473 159.029 234.467 159.048C234.435 159.151 234.371 159.241 234.284 159.302C234.196 159.363 234.092 159.392 233.986 159.384V159.384Z" fill="#29263B"/>
<path d="M246.478 198.653C246.369 198.645 246.267 198.598 246.188 198.522C246.11 198.445 246.059 198.342 246.046 198.231C244.885 188.411 244.966 178.478 246.288 168.679C246.306 168.553 246.372 168.439 246.471 168.363C246.571 168.287 246.695 168.254 246.818 168.272C246.941 168.291 247.052 168.358 247.126 168.46C247.2 168.562 247.232 168.69 247.214 168.816C245.904 178.531 245.823 188.379 246.973 198.115C246.981 198.178 246.976 198.241 246.96 198.302C246.943 198.363 246.915 198.42 246.877 198.47C246.839 198.519 246.792 198.561 246.739 198.592C246.685 198.623 246.626 198.642 246.565 198.65C246.536 198.654 246.507 198.655 246.478 198.653V198.653Z" fill="#29263B"/>
<path d="M250.785 196.337C248.885 196.202 246.638 193.144 245.426 190.192C245.378 190.075 245.378 189.943 245.425 189.825C245.472 189.707 245.562 189.613 245.676 189.564C245.791 189.515 245.919 189.514 246.034 189.562C246.149 189.61 246.24 189.702 246.289 189.819C247.676 193.198 249.874 195.469 250.976 195.378C251.381 195.348 251.681 194.956 251.868 194.215C251.888 194.136 251.927 194.063 251.982 194.004C252.037 193.945 252.106 193.901 252.182 193.877C252.258 193.852 252.339 193.848 252.417 193.865C252.495 193.882 252.567 193.919 252.628 193.973C252.855 194.207 253.14 194.373 253.454 194.451C253.767 194.529 254.095 194.517 254.401 194.415C254.777 194.24 255.1 193.965 255.337 193.619C255.574 193.272 255.717 192.867 255.752 192.446C255.77 192.327 255.831 192.22 255.922 192.145C256.013 192.07 256.129 192.033 256.246 192.041L256.256 192.042C257.02 192.113 257.878 192.115 258.463 191.596C259.033 191.09 259.363 190.082 259.444 188.599C259.447 188.535 259.463 188.473 259.491 188.415C259.518 188.358 259.557 188.306 259.604 188.265C259.699 188.18 259.823 188.138 259.949 188.147C260.816 188.228 261.623 188.014 261.957 184.767C261.973 184.642 262.035 184.528 262.131 184.448C262.227 184.369 262.348 184.33 262.471 184.34C262.532 184.347 262.592 184.365 262.646 184.396C262.7 184.426 262.747 184.466 262.786 184.515C262.825 184.564 262.854 184.621 262.871 184.681C262.888 184.742 262.894 184.805 262.888 184.868C262.668 187.007 262.197 188.976 260.346 189.109C260.204 190.638 259.787 191.693 259.076 192.324C258.369 192.885 257.475 193.139 256.588 193.03C256.482 193.538 256.257 194.013 255.931 194.412C255.606 194.81 255.191 195.122 254.723 195.319C254.369 195.448 253.991 195.495 253.618 195.456C253.244 195.418 252.883 195.295 252.561 195.097C252.452 195.432 252.251 195.727 251.982 195.947C251.713 196.167 251.387 196.302 251.045 196.335C250.958 196.342 250.872 196.342 250.785 196.337Z" fill="#29263B"/>
<path d="M259.865 189.114C259.747 189.105 259.636 189.051 259.555 188.962C259.475 188.873 259.43 188.755 259.43 188.634C259.48 184.118 258.936 179.615 257.814 175.248C257.781 175.125 257.797 174.994 257.858 174.883C257.92 174.773 258.021 174.692 258.141 174.658C258.261 174.624 258.389 174.641 258.496 174.704C258.604 174.767 258.683 174.871 258.716 174.994C259.861 179.444 260.416 184.033 260.366 188.636C260.366 188.699 260.353 188.761 260.33 188.819C260.306 188.878 260.272 188.931 260.228 188.975C260.185 189.02 260.133 189.055 260.076 189.079C260.019 189.103 259.958 189.115 259.897 189.115L259.865 189.114Z" fill="#29263B"/>
<path d="M256.169 193.071C256.049 193.063 255.936 193.006 255.855 192.914C255.774 192.822 255.73 192.702 255.734 192.578C255.803 188.112 255.094 183.67 253.64 179.461C253.619 179.401 253.609 179.337 253.611 179.273C253.614 179.21 253.629 179.147 253.655 179.089C253.682 179.031 253.719 178.979 253.766 178.936C253.812 178.894 253.866 178.861 253.925 178.84C253.984 178.819 254.046 178.81 254.109 178.814C254.171 178.818 254.231 178.835 254.287 178.864C254.343 178.892 254.393 178.932 254.433 178.981C254.474 179.029 254.504 179.086 254.524 179.146C256.015 183.466 256.742 188.025 256.669 192.608C256.667 192.671 256.654 192.733 256.628 192.79C256.603 192.848 256.567 192.9 256.523 192.943C256.478 192.986 256.425 193.02 256.368 193.043C256.311 193.065 256.249 193.076 256.188 193.074L256.169 193.071Z" fill="#29263B"/>
<path d="M252.286 195.012C252.184 195.004 252.086 194.962 252.009 194.892C251.932 194.822 251.879 194.728 251.859 194.624C251.127 190.593 249.923 186.668 248.272 182.934C248.221 182.818 248.217 182.686 248.26 182.567C248.303 182.448 248.39 182.351 248.503 182.298C248.615 182.245 248.744 182.24 248.86 182.284C248.976 182.328 249.071 182.417 249.123 182.533C250.804 186.336 252.031 190.335 252.777 194.441C252.801 194.566 252.775 194.695 252.705 194.801C252.636 194.907 252.529 194.98 252.407 195.004C252.367 195.012 252.327 195.014 252.286 195.012V195.012Z" fill="#29263B"/>
<path d="M225.531 197.456C225.414 197.447 225.303 197.394 225.223 197.305C225.142 197.217 225.097 197.1 225.096 196.979C225.075 193.127 225.348 188.049 227.538 179.594C227.551 179.529 227.576 179.468 227.612 179.413C227.648 179.359 227.695 179.313 227.749 179.278C227.804 179.243 227.865 179.22 227.928 179.21C227.992 179.2 228.056 179.204 228.118 179.221C228.18 179.238 228.238 179.267 228.289 179.308C228.339 179.349 228.38 179.4 228.411 179.459C228.441 179.517 228.459 179.581 228.464 179.646C228.47 179.712 228.461 179.778 228.441 179.84C226.279 188.187 226.009 193.185 226.03 196.974C226.031 197.037 226.019 197.1 225.996 197.158C225.973 197.216 225.938 197.27 225.895 197.314C225.852 197.359 225.8 197.395 225.744 197.419C225.687 197.444 225.626 197.457 225.565 197.457C225.555 197.457 225.543 197.457 225.531 197.456Z" fill="#29263B"/>
<path d="M188.357 172.672C188.336 172.67 188.315 172.668 188.294 172.664C188.173 172.638 188.066 172.564 187.998 172.457C187.93 172.351 187.906 172.221 187.931 172.096C189.718 163.204 192.068 157.495 195.524 150.639C195.583 150.53 195.681 150.449 195.798 150.413C195.914 150.377 196.04 150.389 196.148 150.446C196.256 150.503 196.338 150.602 196.376 150.72C196.415 150.839 196.407 150.968 196.355 151.08C192.936 157.862 190.612 163.506 188.847 172.292C188.824 172.406 188.761 172.506 188.671 172.576C188.581 172.646 188.47 172.68 188.357 172.672V172.672Z" fill="#29263B"/>
<path d="M244.868 87.6183C244.816 87.6148 244.765 87.6024 244.717 87.5816C244.494 87.4837 239.27 85.1563 239.969 81.7853C240.619 78.6545 247.138 72.2272 247.416 71.9545C247.506 71.8697 247.625 71.8247 247.747 71.8289C247.87 71.8332 247.985 71.8864 248.07 71.9771C248.154 72.0679 248.201 72.1891 248.2 72.3146C248.198 72.4402 248.149 72.5602 248.062 72.649C246.232 74.4458 241.374 79.6266 240.884 81.9857C240.345 84.586 245.037 86.677 245.084 86.6978C245.186 86.7422 245.269 86.8223 245.319 86.9237C245.369 87.0252 245.382 87.1415 245.356 87.2519C245.33 87.3623 245.267 87.4597 245.178 87.5268C245.088 87.5939 244.979 87.6263 244.868 87.6183V87.6183Z" fill="#29263B"/>
<path d="M246.267 104.183C246.157 104.175 246.052 104.127 245.973 104.047C245.894 103.968 245.845 103.862 245.834 103.748C245.573 100.852 244.525 98.6288 242.888 97.4913C242.294 97.0883 241.618 96.8301 240.911 96.7364C240.205 96.6426 239.487 96.7158 238.812 96.9503C238.753 96.9696 238.691 96.9766 238.629 96.9708C238.567 96.9651 238.507 96.9468 238.452 96.9169C238.397 96.887 238.348 96.8462 238.309 96.7968C238.269 96.7475 238.24 96.6905 238.222 96.6293C238.204 96.5682 238.199 96.504 238.205 96.4405C238.212 96.3771 238.231 96.3156 238.261 96.2598C238.291 96.2039 238.332 96.1548 238.381 96.1152C238.429 96.0757 238.485 96.0465 238.545 96.0294C239.352 95.7523 240.211 95.6682 241.054 95.7837C241.898 95.8991 242.705 96.211 243.413 96.6955C245.287 97.9976 246.478 100.47 246.766 103.66C246.773 103.729 246.765 103.799 246.742 103.865C246.72 103.931 246.683 103.991 246.636 104.041C246.588 104.091 246.531 104.129 246.467 104.154C246.403 104.178 246.335 104.188 246.267 104.183V104.183Z" fill="#29263B"/>
<path d="M230.83 63.0534C230.642 63.0397 230.46 62.9777 230.302 62.8728C230.143 62.768 230.012 62.6239 229.922 62.4537C229.832 62.2835 229.785 62.0927 229.786 61.899C229.787 61.7053 229.835 61.5148 229.926 61.3452C231.561 58.31 233.464 56.4971 235.58 55.9564C237.345 55.5044 239.221 55.932 241.153 57.2222C241.277 57.3048 241.384 57.4116 241.467 57.5365C241.55 57.6614 241.609 57.802 241.64 57.9501C241.67 58.0983 241.672 58.2511 241.645 58.4C241.618 58.5489 241.562 58.6908 241.482 58.8177C241.401 58.9446 241.297 59.054 241.176 59.1396C241.054 59.2253 240.917 59.2854 240.773 59.3168C240.629 59.3481 240.48 59.3499 240.335 59.3221C240.19 59.2944 240.051 59.2375 239.928 59.1549C238.521 58.213 237.274 57.8989 236.123 58.1931C234.636 58.5733 233.213 60.0094 231.891 62.4613C231.788 62.6535 231.633 62.8113 231.445 62.9162C231.257 63.021 231.044 63.0686 230.83 63.0534V63.0534Z" fill="#29263B"/>
<path d="M272.584 78.5182C272.54 78.5152 272.496 78.5094 272.453 78.5008C267.396 77.5255 263.868 73.6154 263.464 68.5395C263.445 68.2377 263.542 67.9404 263.735 67.7116C263.927 67.4828 264.2 67.3408 264.493 67.3163C264.787 67.2917 265.078 67.3866 265.304 67.5804C265.53 67.7741 265.673 68.0514 265.702 68.3523C266.089 73.2199 269.658 75.6145 272.867 76.2355C273.149 76.2892 273.401 76.4516 273.57 76.6894C273.739 76.9272 273.812 77.2223 273.776 77.5143C273.74 77.8063 273.596 78.073 273.375 78.2596C273.153 78.4463 272.87 78.5388 272.584 78.5182V78.5182Z" fill="#29263B"/>
<path fill-rule="evenodd" clip-rule="evenodd" d="M236.378 65.0702C235.232 64.8208 233.889 66.6216 233.38 69.0897C232.871 71.5578 233.386 73.7633 234.534 74.0123C235.681 74.2613 237.023 72.4603 237.532 69.9928C238.042 67.5252 237.523 65.319 236.378 65.0702Z" fill="#29263B"/>
<path fill-rule="evenodd" clip-rule="evenodd" d="M266.474 74.1449C265.374 73.7271 263.792 75.31 262.939 77.6768C262.087 80.0435 262.288 82.3003 263.386 82.7189C264.484 83.1375 266.068 81.5533 266.92 79.187C267.773 76.8207 267.572 74.5611 266.474 74.1449Z" fill="#29263B"/>
<path d="M186.646 187.672C186.545 187.665 186.449 187.624 186.373 187.556C186.296 187.488 186.243 187.396 186.221 187.295C186.2 187.193 186.211 187.087 186.253 186.993C186.295 186.898 186.366 186.82 186.455 186.77C188.282 185.746 190.309 185.156 192.388 185.044C192.45 185.039 192.513 185.046 192.572 185.066C192.632 185.086 192.687 185.119 192.734 185.161C192.781 185.203 192.819 185.255 192.847 185.313C192.874 185.37 192.89 185.433 192.893 185.497C192.897 185.562 192.887 185.626 192.866 185.686C192.845 185.747 192.812 185.802 192.769 185.849C192.727 185.896 192.675 185.934 192.618 185.961C192.561 185.987 192.5 186.002 192.437 186.003C190.497 186.108 188.606 186.658 186.901 187.615C186.823 187.658 186.735 187.678 186.646 187.672V187.672Z" fill="#29263B"/>
<path d="M220.787 87.5799C220.679 87.5722 220.578 87.5268 220.499 87.4513C220.421 87.3757 220.37 87.2748 220.355 87.1653C219.927 83.9226 218.36 81.7716 215.564 80.5899C215.449 80.5414 215.358 80.448 215.31 80.3303C215.262 80.2126 215.262 80.0803 215.31 79.9624C215.357 79.8446 215.448 79.7508 215.562 79.7018C215.677 79.6528 215.806 79.6526 215.921 79.7011C219.052 81.025 220.806 83.4246 221.282 87.0368C221.299 87.163 221.266 87.2908 221.191 87.3921C221.116 87.4934 221.004 87.5599 220.882 87.5772C220.85 87.5811 220.818 87.582 220.787 87.5799V87.5799Z" fill="#29263B"/>
<path d="M271.86 101.737C271.765 101.73 271.675 101.694 271.601 101.634C271.527 101.573 271.472 101.491 271.444 101.398C271.417 101.305 271.417 101.206 271.446 101.113C271.474 101.021 271.529 100.939 271.604 100.879C274.705 98.393 277.73 97.8923 280.848 99.3516C280.961 99.4045 281.049 99.5012 281.092 99.6206C281.135 99.74 281.131 99.8722 281.079 99.9881C281.028 100.104 280.934 100.194 280.817 100.239C280.701 100.283 280.572 100.279 280.459 100.226C277.651 98.9107 275.019 99.3601 272.18 101.636C272.089 101.709 271.975 101.745 271.86 101.737Z" fill="#29263B"/>
<path fill-rule="evenodd" clip-rule="evenodd" d="M305.285 49.1029C305.666 43.0234 310.621 38.074 320.927 38.5954C331.233 39.1168 337.661 46.225 336.084 51.2648C334.028 57.8376 322.718 58.9208 322.424 65.9882C322.379 67.0633 315.577 66.4828 315.649 65.4091C315.966 58.3713 329.778 55.9413 330.336 50.7243C330.825 46.151 327.343 43.4055 320.691 42.9329C316.069 42.6045 312.021 44.773 311.359 49.4807C311.234 50.477 305.221 50.1059 305.284 49.1042L305.285 49.1029Z" fill="#E1B100"/>
<path fill-rule="evenodd" clip-rule="evenodd" d="M318.772 69.0768C321.366 69.2611 323.376 70.8426 323.257 72.6072C323.138 74.3719 320.935 75.6531 318.341 75.4688C315.747 75.2845 313.738 73.7031 313.857 71.9394C313.976 70.1756 316.179 68.8925 318.772 69.0768V69.0768Z" fill="#E1B100"/>
</g>
<g clip-path="url(#clip1_730_2872)">
<path fill-rule="evenodd" clip-rule="evenodd" d="M121.519 111.572C134.8 109.624 165.746 111.676 188.755 138.48C184.462 150.752 179.062 165.097 174.801 176.437C181.663 200.016 186.622 229.234 185.889 236.898C155.168 245.934 126.302 249.742 96.9097 249.358C82.7225 249.172 58.6614 230.173 49.4915 209.916C49.4915 209.916 45.276 162.59 57.038 145.984C66.7453 132.279 75.8268 123.211 90.0871 118.514C93.7117 117.321 110.284 113.22 121.517 111.572L121.519 111.572Z" fill="#A957E1"/>
<path fill-rule="evenodd" clip-rule="evenodd" d="M174.129 173.68C171.384 164.201 161.841 163.161 165.769 163.09C170.252 163.01 171.932 163.096 169.25 159.963C166.379 156.606 161.955 154.879 163.731 153.499C165.954 151.776 165.064 149.575 161.912 145.381C166.194 147.13 168.965 150.623 170.637 156.138C171.746 159.797 180.017 152.614 176.964 158.028C175.713 160.242 180.546 162.571 179.223 165.98C177.901 169.389 175.815 171.742 174.129 173.682L174.129 173.68Z" fill="#A046DE"/>
<path fill-rule="evenodd" clip-rule="evenodd" d="M96.9879 171.605C93.1005 161.918 79.5132 159.842 75.5347 161.657C72.3698 163.101 87.2264 162.883 90.8652 171.263C92.0876 174.078 84.1221 170.47 83.7307 172.95C83.2935 175.737 94.1403 176.96 94.7863 179.405C95.4322 181.85 86.8638 183.61 86.2289 186.718C84.9007 193.204 69.7405 190.168 72.9892 192.889C76.3906 195.739 90.8046 193.167 94.7577 188.16C88.1586 202.708 78.9087 201.904 76.916 203.715C71.1703 208.931 89.5669 200.993 89.8809 203.126C90.3047 206.034 85.0961 210.314 77.0062 214.221C92.3461 215.627 96.2745 249.917 96.4067 249.631C106.034 235.048 125.838 234.262 121.257 233.098C111.817 230.703 99.1228 242.669 99.1782 238.998C99.3762 225.87 113.679 223.815 110.553 221.587C105.798 218.202 102.003 220.365 102.859 216.32C104.436 208.852 117.857 207.659 115.974 206.063C114.09 204.467 100.352 211.967 99.0838 208.065C97.4328 202.979 105.085 200.025 101.762 196.229C98.6595 192.684 95.592 194.741 96.4202 192.205C99.0032 184.268 107.858 184.442 104.392 182.587C101.547 181.065 96.4078 189.834 96.537 187.648C96.8691 181.992 97.4405 175.801 101.574 164.99C99.3255 167.684 98.0659 169.322 96.9898 171.61L96.9879 171.605Z" fill="#A046DE"/>
<path fill-rule="evenodd" clip-rule="evenodd" d="M163.769 179.975C153.772 174.347 116.255 185.387 121.308 178.703C127.573 170.416 145.168 168.131 145.874 165.983C146.371 164.467 134.858 160.857 123.502 167.192C119.067 169.667 123.004 162.987 133.275 158.899C139.571 156.395 138.526 150.762 131.642 148.726C149.665 152.309 133.705 159.093 138.805 160.808C143.905 162.523 149.543 163.254 155.14 166.934C160.736 170.615 124.441 172.754 130.714 175.371C136.988 177.987 153.643 171.902 163.769 179.972L163.769 179.975Z" fill="#A046DE"/>
<path fill-rule="evenodd" clip-rule="evenodd" d="M157.445 53.7903C164.201 63.1612 174.294 89.3878 162.766 103.429C156.278 111.334 144.012 113.45 144.066 113.54C151.662 126.074 146.862 141.5 130.083 143.23C115.109 144.772 96.4915 131.541 90.0453 118.501C96.3112 116.592 103.997 115.128 104.2 112.136C104.504 107.645 103.516 106.285 103.341 106.242C83.832 108.871 86.8347 86.7333 99.6441 91.2306C98.1004 80.7512 93.3381 59.6664 100.302 52.9034C115.145 38.4883 150.617 44.3238 157.443 53.79L157.445 53.7903Z" fill="#FFBF9B"/>
<path fill-rule="evenodd" clip-rule="evenodd" d="M95.8638 208.256C79.3128 217.11 55.9245 215.996 49.4935 209.916C50.568 221.013 52.2661 234.056 53.7142 246.904C57.4281 257.647 78.4351 258.515 96.9117 249.358C95.7981 239.413 95.6063 219.289 95.8638 208.256Z" fill="#FFBF9B"/>
<path fill-rule="evenodd" clip-rule="evenodd" d="M193.271 110.832C196.747 115.371 203.025 128.427 206.335 138.953C209.645 149.478 217.125 189.764 193.229 193.061C173.511 195.781 173.938 173.117 173.938 173.117C177.013 165.714 179.126 159.837 180.182 148.103C175.496 148.42 172.567 145.236 170.476 140.385C161.95 144.627 151.555 130.496 161.696 123.607C160.997 120.466 162.841 117.098 167.848 116.226C167.131 113.57 168.364 110.676 174.244 109.779C168.375 102.383 159.056 104.249 160.588 98.7488C162.096 93.3311 179.338 92.6492 193.271 110.834L193.271 110.832Z" fill="#FFBF9B"/>
<path d="M183.912 114.317C183.845 114.323 183.778 114.314 183.716 114.291C183.654 114.268 183.599 114.231 183.555 114.184C181.084 111.708 177.685 110.277 174.093 110.201C174.037 110.202 173.982 110.192 173.93 110.172C173.878 110.152 173.831 110.123 173.792 110.085C173.752 110.048 173.72 110.003 173.699 109.954C173.677 109.905 173.666 109.852 173.666 109.798C173.666 109.689 173.71 109.585 173.79 109.507C173.829 109.468 173.876 109.437 173.928 109.416C173.98 109.395 174.035 109.383 174.091 109.382C177.927 109.463 181.557 110.991 184.195 113.635C184.232 113.675 184.261 113.721 184.279 113.772C184.297 113.823 184.304 113.877 184.301 113.93C184.297 113.984 184.283 114.037 184.258 114.085C184.233 114.134 184.199 114.177 184.157 114.213C184.089 114.272 184.003 114.309 183.912 114.317V114.317Z" fill="#29263B"/>
<path d="M177.722 119.104C177.621 119.114 177.52 119.089 177.438 119.033C174.307 116.913 171.049 116.099 167.762 116.626C167.706 116.636 167.649 116.635 167.594 116.623C167.539 116.612 167.487 116.59 167.441 116.558C167.395 116.527 167.356 116.487 167.326 116.441C167.297 116.395 167.277 116.344 167.268 116.29C167.26 116.237 167.263 116.182 167.276 116.129C167.29 116.076 167.315 116.026 167.349 115.982C167.383 115.938 167.425 115.901 167.474 115.873C167.523 115.845 167.577 115.826 167.633 115.818C171.152 115.26 174.617 116.116 177.935 118.362C178.006 118.41 178.059 118.477 178.088 118.556C178.117 118.634 178.12 118.72 178.097 118.801C178.074 118.882 178.026 118.954 177.959 119.008C177.892 119.063 177.809 119.096 177.722 119.104V119.104Z" fill="#29263B"/>
<path d="M170.842 124.527C170.753 124.536 170.663 124.517 170.586 124.473C169.068 123.617 165.19 121.848 161.975 123.89C161.88 123.95 161.765 123.972 161.654 123.951C161.543 123.929 161.447 123.867 161.385 123.776C161.323 123.686 161.302 123.576 161.326 123.469C161.349 123.363 161.416 123.269 161.51 123.209C164.061 121.59 167.526 121.794 171.025 123.766C171.102 123.81 171.163 123.876 171.198 123.955C171.233 124.035 171.241 124.123 171.221 124.207C171.201 124.292 171.153 124.368 171.085 124.426C171.017 124.483 170.932 124.519 170.842 124.527V124.527Z" fill="#29263B"/>
<path d="M170.452 140.666C170.359 140.675 170.265 140.654 170.185 140.606C170.106 140.557 170.046 140.485 170.015 140.401C168.476 136.254 166.583 134.415 163.869 134.432C163.756 134.433 163.648 134.391 163.569 134.314C163.489 134.238 163.445 134.134 163.445 134.026C163.446 133.917 163.492 133.813 163.572 133.735C163.652 133.658 163.761 133.614 163.874 133.614C167.926 133.588 169.778 137.313 170.818 140.117C170.856 140.219 170.85 140.332 170.802 140.43C170.753 140.529 170.666 140.605 170.56 140.643C170.525 140.655 170.489 140.663 170.452 140.666V140.666Z" fill="#29263B"/>
<path d="M147.433 123.115C132.951 123.93 123.356 118.991 116.26 111.111C124.715 114.356 134.141 115.024 144.066 113.54C146.275 117.39 146.952 119.707 147.433 123.115Z" fill="#EA9465"/>
<path d="M153.425 87.6388C153.363 87.6445 153.299 87.637 153.24 87.6167C153.135 87.5798 153.049 87.504 153.002 87.4058C152.955 87.3077 152.951 87.1953 152.99 87.0931C153.889 84.7659 153.953 82.9267 153.185 81.4634C152.378 79.9262 150.652 78.8186 147.906 78.0759C147.852 78.0614 147.802 78.0368 147.758 78.0036C147.715 77.9704 147.678 77.9291 147.652 77.8823C147.625 77.8354 147.608 77.7838 147.602 77.7305C147.596 77.6771 147.601 77.623 147.617 77.5713C147.633 77.5195 147.659 77.4712 147.694 77.4289C147.729 77.3867 147.773 77.3514 147.822 77.325C147.871 77.2987 147.925 77.2819 147.98 77.2755C148.036 77.2691 148.092 77.2733 148.146 77.2878C151.132 78.0948 153.029 79.338 153.947 81.088C154.815 82.7409 154.761 84.8542 153.79 87.3691C153.762 87.4424 153.712 87.5067 153.648 87.5544C153.583 87.6022 153.506 87.6315 153.425 87.6388V87.6388Z" fill="#29263B"/>
<path d="M135.81 98.7329C135.73 98.7405 135.649 98.7259 135.577 98.6909C135.505 98.6558 135.446 98.6017 135.405 98.5349C135.364 98.4681 135.345 98.3914 135.348 98.3137C135.352 98.2361 135.378 98.1607 135.424 98.0963C137.262 95.5346 139.174 94.0963 141.106 93.8164C142.623 93.5955 144.162 94.0819 145.68 95.2598C145.763 95.329 145.815 95.4268 145.824 95.5328C145.833 95.6387 145.798 95.7443 145.728 95.8273C145.658 95.9103 145.557 95.9642 145.447 95.9775C145.336 95.9909 145.226 95.9626 145.138 95.8987C143.812 94.8695 142.497 94.4401 141.224 94.6255C139.537 94.8701 137.821 96.1921 136.125 98.5552C136.089 98.6051 136.042 98.6469 135.988 98.6776C135.933 98.7084 135.873 98.7272 135.81 98.7329V98.7329Z" fill="#29263B"/>
<path d="M121.344 71.5998C121.09 71.6238 120.834 71.5912 120.596 71.5046C120.358 71.418 120.145 71.2798 119.973 71.1006C119.801 70.9214 119.674 70.7061 119.604 70.4713C119.533 70.2366 119.52 69.9886 119.565 69.7468C120.156 66.5948 121.485 64.3661 123.516 63.1227C125.556 61.8742 128.231 61.6645 131.467 62.4997C131.677 62.5539 131.874 62.6476 132.046 62.7752C132.217 62.9028 132.36 63.0619 132.467 63.2434C132.574 63.4249 132.642 63.6253 132.668 63.8332C132.694 64.041 132.677 64.2522 132.618 64.4546C132.559 64.6571 132.459 64.8469 132.324 65.0132C132.188 65.1795 132.021 65.3191 131.83 65.4239C131.64 65.5287 131.43 65.5967 131.214 65.624C130.997 65.6514 130.777 65.6376 130.567 65.5833C128.27 64.99 126.491 65.0658 125.28 65.808C124.078 66.5445 123.256 68.0459 122.839 70.2747C122.774 70.6207 122.592 70.9379 122.322 71.1774C122.052 71.4169 121.708 71.5653 121.344 71.5998Z" fill="#B18B00"/>
<path d="M156.562 66.2694C156.219 66.3015 155.876 66.2309 155.579 66.0673C155.282 65.9037 155.046 65.6551 154.904 65.3557C153.799 63.0216 152.23 62.4054 149.486 63.2373C149.276 63.3035 149.055 63.3293 148.836 63.313C148.617 63.2968 148.404 63.239 148.209 63.1428C148.014 63.0467 147.842 62.9142 147.702 62.753C147.562 62.5918 147.457 62.4051 147.393 62.2037C147.329 62.0023 147.307 61.7903 147.33 61.5799C147.352 61.3695 147.417 61.1649 147.522 60.9779C147.627 60.791 147.769 60.6254 147.941 60.4908C148.112 60.3562 148.309 60.2553 148.52 60.1938C152.877 58.8745 156.13 60.1918 157.935 64.0049C158.045 64.2363 158.094 64.4902 158.08 64.7453C158.066 65.0004 157.988 65.2493 157.854 65.4711C157.719 65.6929 157.531 65.8812 157.306 66.0201C157.081 66.159 156.826 66.2445 156.561 66.2695L156.562 66.2694Z" fill="#B18B00"/>
<path fill-rule="evenodd" clip-rule="evenodd" d="M128.286 69.9896C126.924 70.1175 125.999 72.1907 126.215 74.6171C126.431 77.0435 127.709 78.9098 129.069 78.7822C130.428 78.6546 131.356 76.5811 131.14 74.1547C130.924 71.7284 129.644 69.8622 128.286 69.9896Z" fill="#0014FF"/>
<path fill-rule="evenodd" clip-rule="evenodd" d="M153.836 66.0967C152.478 66.2242 151.549 68.2978 151.765 70.7241C151.981 73.1505 153.261 75.0168 154.619 74.8893C155.977 74.7618 156.906 72.6882 156.69 70.2618C156.474 67.8355 155.196 65.9691 153.836 66.0967V66.0967Z" fill="#0014FF"/>
<path d="M100.548 102.975C100.443 102.985 100.339 102.958 100.256 102.898C100.172 102.839 100.114 102.751 100.094 102.653C99.5361 99.9626 98.1789 96.8393 92.5848 96.5638C92.4719 96.5583 92.3666 96.5099 92.2919 96.4293C92.2172 96.3487 92.1793 96.2425 92.1865 96.1341C92.1937 96.0257 92.2454 95.924 92.3303 95.8513C92.4152 95.7786 92.5263 95.7409 92.6391 95.7464C98.8813 96.0537 100.36 99.7385 100.929 102.483C100.951 102.59 100.928 102.7 100.865 102.791C100.802 102.882 100.704 102.946 100.594 102.969C100.579 102.972 100.563 102.974 100.548 102.975Z" fill="#29263B"/>
<path fill-rule="evenodd" clip-rule="evenodd" d="M99.6336 91.2502C107.351 77.3542 108.564 65.1319 102.989 54.7945C134.9 62.507 164.076 63.6903 174.162 51.4321C178.343 46.3516 179.234 34.02 172.335 27.0697C170.989 30.0683 165.49 31.1068 160.029 30.1152C143.447 27.1043 103.778 10.2617 85.9297 47.0939C73.6335 60.6488 78.1526 78.1645 89.3749 98.0105C89.3921 92.8323 93.7619 89.0904 99.6321 91.2503L99.6336 91.2502Z" fill="#E1B100"/>
<path d="M155.15 57.6246C154.98 57.6407 154.812 57.5935 154.679 57.4926C154.546 57.3918 154.46 57.2452 154.438 57.0834C154.416 56.9216 154.46 56.7572 154.561 56.6243C154.662 56.4915 154.811 56.4005 154.979 56.3704C165.92 54.3736 170.761 48.9668 169.779 39.8414C169.769 39.7587 169.777 39.6748 169.802 39.5946C169.827 39.5144 169.867 39.4395 169.922 39.3742C169.977 39.3088 170.044 39.2544 170.121 39.214C170.197 39.1735 170.281 39.1479 170.367 39.1386L170.38 39.1375C170.552 39.1213 170.723 39.1708 170.856 39.2753C170.989 39.3798 171.073 39.5309 171.09 39.6958C172.141 49.4716 166.797 55.501 155.206 57.6183C155.189 57.6206 155.17 57.6227 155.15 57.6246ZM146.83 56.7025C146.67 56.7219 146.508 56.6842 146.377 56.5965C146.245 56.5088 146.152 56.3772 146.115 56.2268C146.078 56.0764 146.101 55.9176 146.178 55.7807C146.255 55.6438 146.382 55.5382 146.533 55.4841C155.015 52.1914 159.034 47.3996 158.812 40.8348C158.808 40.7514 158.822 40.6679 158.852 40.5892C158.882 40.5105 158.929 40.4382 158.988 40.3766C159.048 40.3149 159.119 40.2652 159.199 40.2303C159.278 40.1953 159.364 40.1759 159.451 40.1731C159.538 40.1691 159.624 40.1816 159.706 40.2099C159.787 40.2381 159.862 40.2816 159.925 40.3379C159.988 40.3941 160.039 40.462 160.075 40.5375C160.11 40.6131 160.13 40.6949 160.133 40.7781C160.369 47.8458 155.956 53.1885 147.015 56.6587C146.957 56.6816 146.895 56.6963 146.832 56.7023L146.83 56.7025ZM138.318 55.9081C138.151 55.932 137.981 55.8931 137.844 55.7995C137.707 55.7058 137.613 55.5647 137.583 55.4054C137.552 55.246 137.587 55.0807 137.679 54.9438C137.772 54.8069 137.916 54.7088 138.08 54.67C141.425 53.7066 143.922 51.2245 144.442 48.3453C144.703 46.6842 144.387 44.9935 143.541 43.536C143.458 43.3887 143.44 43.2149 143.49 43.0528C143.541 42.8908 143.656 42.7539 143.81 42.6721C143.965 42.5904 144.146 42.5705 144.314 42.6169C144.482 42.6633 144.624 42.7722 144.707 42.9195C145.692 44.626 146.058 46.6046 145.746 48.5467C145.14 51.9019 142.276 54.7818 138.448 55.8842C138.405 55.8964 138.362 55.9044 138.318 55.9081L138.318 55.9081Z" fill="#B18B00"/>
<path fill-rule="evenodd" clip-rule="evenodd" d="M188.021 22.4952C187.453 16.4539 191.881 10.7475 202.822 9.51024C213.763 8.27303 221.665 14.1686 220.81 19.3894C219.693 26.1994 207.953 29.185 208.771 36.182C208.895 37.2464 201.637 37.8308 201.542 36.7631C200.752 29.7908 214.914 25.0571 214.669 19.8343C214.454 15.2556 210.348 13.1475 203.265 13.8125C198.344 14.2744 194.425 17.0939 194.481 21.8337C194.508 22.8342 188.115 23.4903 188.021 22.4952V22.4952Z" fill="#E1B100"/>
<path fill-rule="evenodd" clip-rule="evenodd" d="M205.415 39.8398C208.177 39.5806 210.547 40.794 210.703 42.5488C210.859 44.3035 208.744 45.9371 205.982 46.1964C203.22 46.4556 200.851 45.2421 200.695 43.4883C200.539 41.7345 202.655 40.099 205.415 39.8398Z" fill="#E1B100"/>
</g>
<defs>
<clipPath id="clip0_730_2872">
<rect width="229.222" height="235.258" fill="white" transform="matrix(0.997485 0.0708731 -0.0672663 0.997735 146.354 1.65205)"/>
</clipPath>
<clipPath id="clip1_730_2872">
<rect width="253.248" height="242.724" fill="white" transform="matrix(0.995623 -0.0934634 0.0887233 0.996056 0 23.6694)"/>
</clipPath>
</defs>
</svg>
