<svg width="32" height="32" viewBox="0 0 32 32" fill="none" xmlns="http://www.w3.org/2000/svg">
<path d="M16 1C7.71573 1 1 7.71573 1 16C1 18.6583 1.69178 21.1559 2.90535 23.3218C2.27681 24.9862 1.68697 26.9073 1.30086 28.8265C1.07592 29.9447 2.06634 30.8917 3.17185 30.6329C5.00615 30.2034 6.86813 29.607 8.512 29.0001C10.7159 30.2722 13.2734 31 16 31C24.2843 31 31 24.2843 31 16C31 7.71573 24.2843 1 16 1Z" fill="#7949FF" fill-opacity="0.4"/>
<path fill-rule="evenodd" clip-rule="evenodd" d="M20.2194 19.2685C20.6234 18.6528 21.45 18.4813 22.0657 18.8853C22.6813 19.2893 22.8529 20.1159 22.4489 20.7315C20.9849 22.9623 18.4321 24 16.0008 24C13.5695 24 11.0167 22.9623 9.55273 20.7315C9.14873 20.1159 9.32026 19.2893 9.93593 18.8853C10.5515 18.4813 11.3781 18.6528 11.7822 19.2685C12.6516 20.5933 14.2655 21.3333 16.0008 21.3333C17.7361 21.3333 19.35 20.5933 20.2194 19.2685ZM11.3341 10C12.0705 10 12.6675 10.5969 12.6675 11.3333V12.6667C12.6675 13.4031 12.0705 14 11.3341 14C10.5977 14 10.0008 13.4031 10.0008 12.6667V11.3333C10.0008 10.5969 10.5977 10 11.3341 10ZM19.3341 11.3333C19.3341 10.5969 19.9311 10 20.6675 10C21.4039 10 22.0008 10.5969 22.0008 11.3333V12.6667C22.0008 13.4031 21.4039 14 20.6675 14C19.9311 14 19.3341 13.4031 19.3341 12.6667V11.3333Z" fill="#7A00E6"/>
</svg>
