<svg width="23" height="24" viewBox="0 0 23 24" fill="none" xmlns="http://www.w3.org/2000/svg">
<mask id="mask0_893_3803" style="mask-type:alpha" maskUnits="userSpaceOnUse" x="0" y="0" width="23" height="24">
<rect y="0.553711" width="22.8924" height="22.8924" fill="#D9D9D9"/>
</mask>
<g mask="url(#mask0_893_3803)">
<path d="M10.1095 16.4832L17.3588 9.2339L15.5941 7.46927L10.1095 12.9539L7.34333 10.1877L5.57871 11.9524L10.1095 16.4832ZM4.76794 21.2047C4.07274 21.2047 3.4777 20.9572 2.98281 20.4621C2.48776 19.9673 2.24023 19.3722 2.24023 18.677V5.32311C2.24023 4.62807 2.48776 4.03303 2.98281 3.53798C3.4777 3.04293 4.07274 2.79541 4.76794 2.79541H18.1218C18.8169 2.79541 19.4119 3.04293 19.907 3.53798C20.402 4.03303 20.6495 4.62807 20.6495 5.32311V18.677C20.6495 19.3722 20.402 19.9673 19.907 20.4621C19.4119 20.9572 18.8169 21.2047 18.1218 21.2047H4.76794Z" fill="#7A00E6"/>
</g>
</svg>
